<?xml version="1.0" encoding="UTF-8"?>
<svg version="1.1" xmlns="http://www.w3.org/2000/svg" width="678" height="256">
<path d="M0 0 C1.94864413 -0.00067476 3.89728817 -0.00164623 5.84593201 -0.00289917 C9.9045391 -0.00436487 13.96312402 -0.00225596 18.02172852 0.00244141 C23.22704334 0.00817244 28.43230697 0.00483139 33.63761997 -0.00113106 C37.64981983 -0.00473801 41.66200747 -0.00359806 45.67420769 -0.00100327 C47.59478702 -0.00033614 49.51536747 -0.00115494 51.43594551 -0.00348282 C54.1091013 -0.00601523 56.78217278 -0.00216195 59.45532227 0.00341797 C60.24854889 0.00139374 61.04177551 -0.00063049 61.85903931 -0.00271606 C65.06602287 0.00971901 67.61851901 0.11112092 70.68359375 1.1328125 C70.77651699 11.27761772 70.8474717 21.42232069 70.89084244 31.56746578 C70.91166452 36.2789361 70.93988319 40.99011397 70.98535156 45.70141602 C71.02900212 50.2531526 71.05277127 54.80460893 71.06310272 59.35653877 C71.07045976 61.08799205 71.08482606 62.81943101 71.10651398 64.55076408 C71.31556353 81.93999025 71.31556353 81.93999025 66.68359375 89.1328125 C66.20019531 89.90753906 65.71679688 90.68226563 65.21875 91.48046875 C60.58337163 96.87816399 55.20320406 100.26209216 49.05615234 103.76171875 C46.09323766 105.47397733 43.16606382 107.24263967 40.234375 109.0078125 C38.47596001 110.0552128 36.71589108 111.09975067 34.95474243 112.14254761 C33.77775377 112.84214576 32.60338306 113.54616789 31.43173218 114.25466919 C29.76367391 115.26067148 28.08316849 116.24594492 26.40234375 117.23046875 C25.42201172 117.81320557 24.44167969 118.39594238 23.43164062 118.99633789 C20.1794734 120.34129511 18.9733602 120.2823497 15.68359375 119.1328125 C13.75355524 118.18081424 11.86076887 117.151464 10 116.0703125 C8.37046387 115.12889404 8.37046387 115.12889404 6.70800781 114.16845703 C5.55357023 113.49070237 4.39960686 112.81213939 3.24609375 112.1328125 C2.66355835 111.79167419 2.08102295 111.45053589 1.48083496 111.09906006 C-1.42080784 109.39981787 -4.31668512 107.69155106 -7.20849609 105.97558594 C-9.06900764 104.87243266 -10.93283135 103.77479454 -12.80322266 102.68847656 C-23.53554158 96.45362768 -29.69068994 90.2504825 -33.31640625 78.1328125 C-33.57558464 75.4242132 -33.70937393 72.96034447 -33.67285156 70.26391602 C-33.67489594 69.52308273 -33.67694031 68.78224945 -33.67904663 68.01896667 C-33.68202593 65.59962298 -33.66367374 63.18098 -33.64453125 60.76171875 C-33.64147019 59.07161121 -33.63959671 57.38150114 -33.63885498 55.69139099 C-33.6342709 52.16533622 -33.61991082 48.63951225 -33.59765625 45.11352539 C-33.56922301 40.58496884 -33.55842751 36.05659242 -33.55397415 31.52795506 C-33.54982925 28.04595631 -33.54002207 24.5639942 -33.52809906 21.08201408 C-33.52239003 19.41098257 -33.51763342 17.73994754 -33.51383209 16.0689106 C-33.50699469 13.74452551 -33.49337854 11.4202862 -33.47753906 9.09594727 C-33.4764212 8.40145477 -33.47530334 7.70696228 -33.47415161 6.99142456 C-33.43110554 2.24751179 -33.43110554 2.24751179 -32.31640625 1.1328125 C-21.70152116 -0.51478786 -10.71020749 -0.0131247 0 0 Z M-28.31640625 7.1328125 C-28.41431195 8.63019374 -28.44615489 10.13224142 -28.44140625 11.6328125 C-28.44398437 12.4475 -28.4465625 13.2621875 -28.44921875 14.1015625 C-28.54092405 16.12811627 -28.54092405 16.12811627 -27.31640625 17.1328125 C-24.42497474 17.22805155 -21.55748561 17.25834277 -18.66577148 17.24633789 C-17.7585434 17.24648392 -16.85131531 17.24662994 -15.91659546 17.2467804 C-12.9027064 17.24608091 -9.88887832 17.23828684 -6.875 17.23046875 C-4.79134658 17.2286047 -2.70769271 17.22718074 -0.6240387 17.22618103 C4.87182821 17.22235484 10.36766888 17.2125237 15.86352539 17.20147705 C21.46695602 17.1912651 27.07039088 17.18668387 32.67382812 17.18164062 C43.67709489 17.17090152 54.68034214 17.15382389 65.68359375 17.1328125 C65.68359375 13.5028125 65.68359375 9.8728125 65.68359375 6.1328125 C53.57517431 6.10969072 41.46676008 6.09189826 29.3583231 6.08100033 C23.73651413 6.07577114 18.11472022 6.06867284 12.49291992 6.05737305 C7.07241098 6.04654544 1.65191655 6.04053594 -3.76860237 6.03793526 C-5.8415557 6.03608078 -7.91450819 6.03245973 -9.98745537 6.02708244 C-12.88024518 6.0198737 -15.77297421 6.01882149 -18.66577148 6.01928711 C-19.53179489 6.01569183 -20.3978183 6.01209656 -21.29008484 6.00839233 C-25.11156113 5.63934213 -25.11156113 5.63934213 -28.31640625 7.1328125 Z M-28.31640625 23.1328125 C-28.43060796 24.70056699 -28.47599075 26.27340289 -28.4934082 27.84521484 C-28.50624344 28.85071381 -28.51907867 29.85621277 -28.53230286 30.8921814 C-28.53968979 31.98994904 -28.54707672 33.08771667 -28.5546875 34.21875 C-28.56275925 35.34544098 -28.57083099 36.47213196 -28.57914734 37.63296509 C-28.59301595 40.02889456 -28.6037256 42.42484402 -28.61157227 44.82080078 C-28.62867089 48.45775021 -28.67251921 52.09376361 -28.71679688 55.73046875 C-28.72693351 58.05988915 -28.73544656 60.38931729 -28.7421875 62.71875 C-28.75969559 63.79627533 -28.77720367 64.87380066 -28.79524231 65.98397827 C-28.7712036 74.50493512 -27.05795196 81.88061916 -22.40234375 89.1015625 C-20.05857423 91.38388488 -17.76120469 92.9696606 -14.94140625 94.6328125 C-13.80960938 95.30570312 -12.6778125 95.97859375 -11.51171875 96.671875 C-10.53960449 97.24083496 -10.53960449 97.24083496 -9.54785156 97.82128906 C-6.93801335 99.35521148 -4.34223696 100.91176502 -1.74609375 102.46875 C0.23010058 103.64905415 2.20666446 104.82873976 4.18359375 106.0078125 C5.61711182 106.86536133 5.61711182 106.86536133 7.07958984 107.74023438 C7.99047363 108.27970703 8.90135742 108.81917969 9.83984375 109.375 C10.65259766 109.8582373 11.46535156 110.34147461 12.30273438 110.83935547 C13.08841797 111.26619629 13.87410156 111.69303711 14.68359375 112.1328125 C15.89184814 112.80098999 15.89184814 112.80098999 17.12451172 113.48266602 C19.75073825 114.40864509 19.75073825 114.40864509 22.46337891 113.09399414 C23.45644043 112.49965576 24.44950195 111.90531738 25.47265625 111.29296875 C26.57996094 110.64134766 27.68726563 109.98972656 28.828125 109.31835938 C29.9884596 108.61096956 31.14861517 107.90328598 32.30859375 107.1953125 C33.99662109 106.19661133 33.99662109 106.19661133 35.71875 105.17773438 C39.05864064 103.19117514 42.37509989 101.17117865 45.68359375 99.1328125 C46.72805664 98.48989258 47.77251953 97.84697266 48.84863281 97.18457031 C56.87042524 92.17194514 62.16561785 88.00424069 65.08364868 78.79397583 C66.22843736 73.7160615 66.04725304 68.62195404 65.9765625 63.44140625 C65.97231766 62.25555435 65.96807281 61.06970245 65.96369934 59.84791565 C65.94700808 56.08847624 65.90937263 52.32958783 65.87109375 48.5703125 C65.85603461 46.00977341 65.84234837 43.44922585 65.83007812 40.88867188 C65.79713582 34.63653316 65.74703195 28.38471221 65.68359375 22.1328125 C53.57517431 22.10969072 41.46676008 22.09189826 29.3583231 22.08100033 C23.73651413 22.07577114 18.11472022 22.06867284 12.49291992 22.05737305 C7.07241098 22.04654544 1.65191655 22.04053594 -3.76860237 22.03793526 C-5.8415557 22.03608078 -7.91450819 22.03245973 -9.98745537 22.02708244 C-12.88024518 22.0198737 -15.77297421 22.01882149 -18.66577148 22.01928711 C-19.53179489 22.01569183 -20.3978183 22.01209656 -21.29008484 22.00839233 C-25.11156113 21.63934213 -25.11156113 21.63934213 -28.31640625 23.1328125 Z " fill="#FBFCFC" transform="translate(125.31640625,80.8671875)"/>
<path d="M0 0 C0.88236328 -0.020625 1.76472656 -0.04125 2.67382812 -0.0625 C10.00730425 -0.10586128 15.7752054 0.81428367 21.375 5.9375 C24.44146537 10.86242923 24.94330625 14.72096875 23.8125 20.375 C22.12083898 23.91210941 20.06484565 26.34609165 17.4375 29.25 C21.3975 35.19 21.3975 35.19 25.4375 41.25 C23.4375 43.25 23.4375 43.25 19.75 44 C17.609375 43.9765625 17.609375 43.9765625 15.4375 43.25 C12.07723376 39.6973521 9.61847663 35.61195325 7.4375 31.25 C5.31173218 30.78348793 5.31173218 30.78348793 2.875 30.625 C1.410625 30.50125 -0.05375 30.3775 -1.5625 30.25 C-1.5625 34.21 -1.5625 38.17 -1.5625 42.25 C-7.1875 43.375 -7.1875 43.375 -10.5625 42.25 C-10.58714638 36.42928378 -10.6053343 30.60859766 -10.61743164 24.7878418 C-10.62247267 22.80606559 -10.62930538 20.82429311 -10.63793945 18.8425293 C-10.65001515 16.00047891 -10.65573045 13.15847753 -10.66015625 10.31640625 C-10.66531754 9.42474258 -10.67047882 8.53307892 -10.67579651 7.61439514 C-10.67599177 5.49259399 -10.6246003 3.3708922 -10.5625 1.25 C-8.29682531 -1.01567469 -3.03848303 0.0172274 0 0 Z M-1.5625 8.25 C-1.5625 12.87 -1.5625 17.49 -1.5625 22.25 C6.53587597 22.98418712 6.53587597 22.98418712 13.75 20.125 C15.67915033 17.35563177 15.67915033 17.35563177 15.5625 14.125 C14.64029524 11.20228347 14.64029524 11.20228347 12.5625 9.375 C7.80270943 7.66147539 3.47953165 8.06775789 -1.5625 8.25 Z " fill="#FCFDFD" transform="translate(484.5625,113.75)"/>
<path d="M0 0 C0.93005859 -0.020625 1.86011719 -0.04125 2.81835938 -0.0625 C8.90965251 -0.0967448 13.41276662 0.63072888 18.9375 3.25 C23.48522466 8.03094131 24.28219177 11.28185047 24.2265625 17.70703125 C23.81003148 21.3713785 22.30073907 23.48163423 19.9375 26.25 C19.525 26.8275 19.1125 27.405 18.6875 28 C12.77961173 32.2199202 4.82870355 31.47801776 -2.0625 31.25 C-1.97871094 31.96027344 -1.89492187 32.67054688 -1.80859375 33.40234375 C-1.70675781 34.32144531 -1.60492188 35.24054688 -1.5 36.1875 C-1.39558594 37.10402344 -1.29117188 38.02054688 -1.18359375 38.96484375 C-1.14363281 39.71894531 -1.10367188 40.47304687 -1.0625 41.25 C-2.0625 42.25 -2.0625 42.25 -4.12890625 42.34765625 C-4.95261719 42.33605469 -5.77632812 42.32445312 -6.625 42.3125 C-7.45128906 42.30347656 -8.27757812 42.29445312 -9.12890625 42.28515625 C-9.76699219 42.27355469 -10.40507812 42.26195312 -11.0625 42.25 C-11.08714638 36.42928378 -11.1053343 30.60859766 -11.11743164 24.7878418 C-11.12247267 22.80606559 -11.12930538 20.82429311 -11.13793945 18.8425293 C-11.15001515 16.00047891 -11.15573045 13.15847753 -11.16015625 10.31640625 C-11.16531754 9.42474258 -11.17047882 8.53307892 -11.17579651 7.61439514 C-11.17599177 5.49259399 -11.1246003 3.3708922 -11.0625 1.25 C-8.73620439 -1.07629561 -3.11946154 0.01680518 0 0 Z M-1.0625 8.25 C-2.44476016 11.01452033 -2.15775387 13.2961363 -2.125 16.375 C-2.11597656 17.47070312 -2.10695312 18.56640625 -2.09765625 19.6953125 C-2.08605469 20.53835937 -2.07445312 21.38140625 -2.0625 22.25 C0.01968362 22.35832169 2.10349129 22.43573541 4.1875 22.5 C5.34765625 22.54640625 6.5078125 22.5928125 7.703125 22.640625 C11.00366806 22.51889243 11.00366806 22.51889243 13.33203125 20.42578125 C15.48382009 17.50961 15.46539118 15.79441224 14.9375 12.25 C13.08407225 9.69050454 11.99993607 9.27081202 8.9375 8.25 C7.20954648 8.18197033 5.47914635 8.16504355 3.75 8.1875 C2.84894531 8.19652344 1.94789063 8.20554687 1.01953125 8.21484375 C-0.01107422 8.23224609 -0.01107422 8.23224609 -1.0625 8.25 Z " fill="#FCFDFD" transform="translate(233.0625,113.75)"/>
<path d="M0 0 C2.05078125 0.03255208 4.1015625 0.06510417 6.15234375 0.09765625 C6.16692627 0.88938232 6.18150879 1.6811084 6.1965332 2.49682617 C6.27112731 6.09342168 6.36775208 9.68910068 6.46484375 13.28515625 C6.48740234 14.53103516 6.50996094 15.77691406 6.53320312 17.06054688 C6.56865234 18.26259766 6.60410156 19.46464844 6.640625 20.703125 C6.66680908 21.80809326 6.69299316 22.91306152 6.7199707 24.05151367 C7.20122548 27.44203648 8.13048642 29.35644014 10.15234375 32.09765625 C13.13299124 33.86993314 14.80593896 34.11844054 18.27734375 33.91015625 C21.23750499 33.07358894 22.36390826 32.54498902 24.15234375 30.09765625 C25.23189587 26.8589999 25.35676116 24.30609787 25.46875 20.8984375 C25.51064453 19.68994141 25.55253906 18.48144531 25.59570312 17.23632812 C25.63501953 15.97369141 25.67433594 14.71105469 25.71484375 13.41015625 C25.75802734 12.13591797 25.80121094 10.86167969 25.84570312 9.54882812 C25.95189235 6.39854773 26.05393908 3.24818786 26.15234375 0.09765625 C32.3046875 0 32.3046875 0 34.15234375 0.09765625 C36.76238972 2.70770222 35.38717035 10.09260187 35.40234375 13.59765625 C35.42296875 14.7578125 35.44359375 15.91796875 35.46484375 17.11328125 C35.49929261 24.72647865 35.35794794 32.07608009 30.43359375 38.25390625 C29.84578125 38.69734375 29.25796875 39.14078125 28.65234375 39.59765625 C28.06453125 40.06171875 27.47671875 40.52578125 26.87109375 41.00390625 C21.88732485 44.17539555 15.82258638 43.5037479 10.15234375 43.09765625 C4.93709555 41.39084775 2.29421294 38.54863761 -0.84765625 34.09765625 C-2.57189182 29.81753018 -3.09540789 26.23956936 -3.078125 21.640625 C-3.07619141 20.44630859 -3.07425781 19.25199219 -3.07226562 18.02148438 C-3.05389648 16.17200195 -3.05389648 16.17200195 -3.03515625 14.28515625 C-3.03451172 13.03283203 -3.03386719 11.78050781 -3.03320312 10.49023438 C-2.98274558 0.1576504 -2.98274558 0.1576504 0 0 Z " fill="#FCFDFD" transform="translate(429.84765625,113.90234375)"/>
<path d="M0 0 C4.16074966 1.37875822 7.00978285 3.53743576 9.4375 7.1875 C11.51928327 11.48802597 12.07081621 15.3246053 11 20 C6.98238284 28.70951972 0.010681 36.35132407 -5.83984375 43.88671875 C-9.1021137 48.10076737 -12.18977226 52.41564757 -15.21875 56.80078125 C-17.98237814 60.21289231 -21.39816055 63.67675722 -25.91796875 64.23828125 C-31.876415 64.43313577 -35.14307607 63.49698523 -40 60 C-42.86114108 56.85274481 -43.8553582 54.18124133 -44.375 49.9375 C-43.37335757 39.42025447 -35.71880629 31.42570381 -29.42578125 23.4140625 C-27.1865113 20.55812721 -25.0190391 17.67001874 -22.91796875 14.7109375 C-22.43537598 14.03313232 -21.9527832 13.35532715 -21.45556641 12.65698242 C-20.55526294 11.38415591 -19.66244701 10.10598516 -18.77880859 8.8215332 C-13.72353172 1.71893866 -8.597054 -1.45281226 0 0 Z M-18.875 16.625 C-19.74175145 17.87009533 -20.60894447 19.11488337 -21.4765625 20.359375 C-22.11319824 21.28073242 -22.11319824 21.28073242 -22.76269531 22.22070312 C-24.55546149 24.79877729 -26.40016212 27.33767448 -28.25 29.875 C-29.20326172 31.18404297 -29.20326172 31.18404297 -30.17578125 32.51953125 C-32.37902605 35.51537803 -34.61532968 38.48494162 -36.87109375 41.44140625 C-39.41784688 44.95751178 -39.29128384 47.70356343 -39 52 C-37.74544028 54.82275936 -36.71615278 56.46288541 -34.25 58.3125 C-30.96856187 59.31516165 -28.41780831 59.35356638 -25 59 C-19.69159274 56.13174769 -17.03774984 52.68553553 -13.875 47.75 C-12.92763849 46.31951724 -11.97700589 44.89119647 -11.0234375 43.46484375 C-10.53327148 42.73120605 -10.04310547 41.99756836 -9.53808594 41.24169922 C-6.50407399 36.81974721 -3.23192527 32.57413204 0.02783203 28.31738281 C5.20722342 22.07823115 5.20722342 22.07823115 6.9375 14.5 C5.92483745 10.71939315 4.70604174 8.788043 2 6 C-7.74933874 1.12533063 -13.93716036 9.34701876 -18.875 16.625 Z " fill="#77DCEC" transform="translate(162,112)"/>
<path d="M0 0 C6.15234375 -0.09765625 6.15234375 -0.09765625 8 0 C9.61780157 1.61780157 9.22272147 3.45635518 9.31640625 5.69140625 C9.37924805 7.10776367 9.37924805 7.10776367 9.44335938 8.55273438 C9.48267578 9.54595703 9.52199219 10.53917969 9.5625 11.5625 C9.60568359 12.55958984 9.64886719 13.55667969 9.69335938 14.58398438 C9.79980298 17.0558415 9.90181928 19.5278031 10 22 C10.60585938 21.278125 11.21171875 20.55625 11.8359375 19.8125 C18.59815297 12.32204594 18.59815297 12.32204594 22.890625 11.3359375 C25.3331254 11.37083036 27.6027308 11.54094845 30 12 C28.37159701 15.40219909 26.51714616 18.16821057 24 21 C23.34 21 22.68 21 22 21 C20.99095971 23.98018877 20.55655467 26.07499541 21.94873047 28.97900391 C23.3746809 31.15146628 24.87501265 33.23611113 26.4375 35.3125 C27.47926069 36.74507955 28.51970133 38.1786203 29.55859375 39.61328125 C30.02579834 40.24016846 30.49300293 40.86705566 30.97436523 41.51293945 C32 43 32 43 32 44 C28.13467717 44.70343191 24.8371204 44.94042138 21 44 C17.64284081 40.7263782 15.30397895 37.06662187 13 33 C9.82990528 34.62078662 9.82990528 34.62078662 9.48828125 37.1640625 C9.43027344 37.97617188 9.37226563 38.78828125 9.3125 39.625 C9.209375 41.06875 9.10625 42.5125 9 44 C6.03 44 3.06 44 0 44 C-1.23456893 39.29034815 -1.03639376 34.79957481 -0.87890625 29.98046875 C-0.85529526 29.12189774 -0.83168427 28.26332672 -0.80735779 27.3787384 C-0.73104912 24.64814354 -0.64688452 21.91785604 -0.5625 19.1875 C-0.50924644 17.33139503 -0.45650629 15.47527526 -0.40429688 13.61914062 C-0.27547858 9.07923404 -0.13961628 4.53958683 0 0 Z " fill="#FCFDFC" transform="translate(333,112)"/>
<path d="M0 0 C4.41312574 2.12775705 7.47505015 4.79175025 10 9 C10.59995097 11.99471322 10.86715584 14.95122645 11 18 C5.9781656 19.97343652 1.44415968 20.4086274 -3.875 20.625 C-4.65875 20.66367188 -5.4425 20.70234375 -6.25 20.7421875 C-8.16631367 20.83566622 -10.08312319 20.91888495 -12 21 C-10.73407275 22.56386133 -10.73407275 22.56386133 -9 24 C-4.92413093 24.2672701 -1.67865185 24.14085227 2.3125 23.3125 C5 23 5 23 6.875 24.25 C8 26 8 26 8 29 C2.6633513 32.85424628 -2.48500547 33.68194335 -9 33 C-14.36581995 31.21139335 -18.10571683 29.120401 -21.07421875 24.23046875 C-22.9667878 19.67073487 -22.71438346 14.81592986 -22 10 C-17.283695 0.23051108 -10.21036159 -1.10863175 0 0 Z M-10.9375 8.8125 C-13.22867096 10.74144591 -13.22867096 10.74144591 -13 13 C-8.05 13 -3.1 13 2 13 C-0.37643144 7.78614827 -0.37643144 7.78614827 -4.375 6.9375 C-8.06094973 6.69261764 -8.06094973 6.69261764 -10.9375 8.8125 Z " fill="#FDFDFD" transform="translate(387,124)"/>
<path d="M0 0 C4.08834309 2.36852349 6.39411416 4.74330404 8.4921875 9.0390625 C9.3168448 14.55906588 9.24043806 19.4871354 6.8046875 24.5390625 C3.08557925 28.55972007 -0.07813518 31.66746336 -5.70703125 32.27734375 C-11.85564848 32.4607405 -16.48898483 31.75971766 -21.5078125 28.0390625 C-25.60304224 23.5238092 -26.7307627 19.00804741 -26.5078125 13.0390625 C-25.74617101 8.17695575 -23.77954916 4.83114824 -20.1328125 1.5390625 C-14.1690172 -2.47714651 -6.61992795 -2.53660791 0 0 Z M-15.5078125 9.0390625 C-17.60882845 11.7130828 -17.50628226 13.08190935 -17.3828125 16.5390625 C-16.41366372 20.41565762 -15.83417014 21.85066932 -12.5078125 24.0390625 C-9.0078125 24.70572917 -9.0078125 24.70572917 -5.5078125 24.0390625 C-3.14283811 22.17197745 -1.84750535 20.71844819 -0.5078125 18.0390625 C-0.09526976 14.32617786 -0.24562564 12.49284746 -2.1328125 9.2265625 C-6.70682786 5.01365361 -10.75506448 5.21045993 -15.5078125 9.0390625 Z " fill="#FCFDFC" transform="translate(285.5078125,124.9609375)"/>
<path d="M0 0 C2.97 0 5.94 0 9 0 C9 11.22 9 22.44 9 34 C15.93 34 22.86 34 30 34 C30 36.64 30 39.28 30 42 C26.6294255 42.75636067 23.51077678 43.12811063 20.05859375 43.1328125 C18.68864258 43.13474609 18.68864258 43.13474609 17.29101562 43.13671875 C16.34935547 43.13285156 15.40769531 43.12898438 14.4375 43.125 C13.01920898 43.13080078 13.01920898 43.13080078 11.57226562 43.13671875 C10.66025391 43.13542969 9.74824219 43.13414062 8.80859375 43.1328125 C7.98157959 43.13168457 7.15456543 43.13055664 6.30249023 43.12939453 C4 43 4 43 0 42 C0 28.14 0 14.28 0 0 Z " fill="#FCFDFD" transform="translate(516,114)"/>
<path d="M0 0 C2.71790802 1.44388863 4.42552931 2.6173641 5.625 5.49609375 C5.645625 6.07359375 5.66625 6.65109375 5.6875 7.24609375 C3.5 8.87109375 3.5 8.87109375 0.6875 10.24609375 C-1.6875 9.43359375 -1.6875 9.43359375 -4.3125 8.24609375 C-9.65468755 7.8557792 -9.65468755 7.8557792 -14.3125 10.24609375 C-15.11433226 13.30307923 -15.59205331 15.19430343 -15.3125 18.24609375 C-13.4991503 21.47621145 -13.4991503 21.47621145 -10.3125 23.24609375 C-6.86260265 23.12288313 -3.95259845 22.40983987 -0.625 21.55859375 C2.14930464 21.18368772 3.3548544 21.77739096 5.6875 23.24609375 C5.35216224 26.37591287 4.68683599 27.24670534 2.3125 29.43359375 C-2.37329659 32.66902473 -6.79025423 32.88052652 -12.3125 32.24609375 C-18.16699256 30.44866182 -21.39889435 27.72367237 -24.3125 22.24609375 C-25.97276461 17.26529992 -25.91153425 12.94335746 -24.1875 8.05859375 C-18.50068666 -0.47162627 -9.86433224 -3.21590561 0 0 Z " fill="#FCFDFD" transform="translate(322.3125,124.75390625)"/>
<path d="M0 0 C6.15234375 -0.09765625 6.15234375 -0.09765625 8 0 C9 1 9 1 9.09765625 2.84765625 C9.04882812 5.92382812 9.04882812 5.92382812 9 9 C11.64 9 14.28 9 17 9 C17.04254356 10.99954746 17.04080783 13.00041636 17 15 C16.67 15.33 16.34 15.66 16 16 C13.69 16 11.38 16 9 16 C9.33 21.28 9.66 26.56 10 32 C11.98 32 13.96 32 16 32 C17.36741555 34.25221384 18.04066478 35.52557758 17.8125 38.1875 C17.4103125 39.0846875 17.4103125 39.0846875 17 40 C12.5594733 41.48017557 8.0839489 41.65808913 3.625 40.25 C1.58887798 38.68375229 0.97811559 37.36950467 0 35 C-0.22705078 32.80175781 -0.22705078 32.80175781 -0.1953125 30.453125 C-0.18886719 29.60878906 -0.18242187 28.76445312 -0.17578125 27.89453125 C-0.15902344 27.02183594 -0.14226562 26.14914063 -0.125 25.25 C-0.11597656 24.36183594 -0.10695313 23.47367188 -0.09765625 22.55859375 C-0.07414577 20.37211942 -0.04128499 18.18619906 0 16 C-1.65 16 -3.3 16 -5 16 C-5 13.69 -5 11.38 -5 9 C-3.35 9 -1.7 9 0 9 C0 6.03 0 3.06 0 0 Z " fill="#FDFDFD" transform="translate(404,116)"/>
<path d="M0 0 C0.99 0.33 1.98 0.66 3 1 C2.4864994 5.61308732 0.65937601 8.14491078 -2.1875 11.75 C-5.03363367 15.42871871 -7.86165782 19.10516355 -10.5 22.9375 C-10.9640625 23.60652344 -11.428125 24.27554688 -11.90625 24.96484375 C-13.15713813 27.29238917 -13.60204801 29.39974551 -14 32 C-11.2553656 32.58776634 -11.2553656 32.58776634 -8 32 C-6.48210711 30.70190947 -6.48210711 30.70190947 -5.140625 28.9609375 C-4.62226074 28.32502686 -4.10389648 27.68911621 -3.56982422 27.03393555 C-0.58237523 23.16326097 2.23942302 19.1792669 5.03125 15.16601562 C5.48757812 14.52728516 5.94390625 13.88855469 6.4140625 13.23046875 C6.8157666 12.65707764 7.2174707 12.08368652 7.63134766 11.49291992 C9.240147 9.73804871 10.83101905 8.94162001 13 8 C13.74609375 9.62109375 13.74609375 9.62109375 14 12 C12.41015625 14.84765625 12.41015625 14.84765625 10.0625 18.0625 C9.65370605 18.62815674 9.24491211 19.19381348 8.82373047 19.77661133 C7.97608304 20.94699291 7.12314988 22.1135634 6.26513672 23.27636719 C5.06452394 24.91209204 3.89269976 26.56883362 2.72265625 28.2265625 C-2.59140625 35.72760417 -2.59140625 35.72760417 -6 38 C-10.17976235 38.30398272 -13.49374541 38.46736434 -17 36 C-19.53523051 32.19715423 -19.52037649 30.52077075 -19 26 C-17.6430222 23.16010173 -15.87108817 20.71042549 -14 18.1875 C-13.50395264 17.49333984 -13.00790527 16.79917969 -12.49682617 16.08398438 C-8.52300476 10.57143481 -4.3679438 5.20648888 0 0 Z " fill="#65D4E6" transform="translate(149,124)"/>
<path d="M0 0 C0.495 0.99 0.495 0.99 1 2 C-1.27924769 7.70688555 -5.09317152 12.43287127 -8.75 17.3125 C-9.34554687 18.11623047 -9.94109375 18.91996094 -10.5546875 19.74804688 C-13.59526472 23.83834718 -16.67037787 27.90221552 -19.7734375 31.9453125 C-20.32435059 32.66348145 -20.87526367 33.38165039 -21.44287109 34.12158203 C-24.20466627 37.45323021 -26.79346685 39.61537496 -31.12890625 40.37109375 C-36.83391617 40.6896476 -40.48239827 39.482318 -45 36 C-46.0625 33.375 -46.0625 33.375 -46 31 C-45.34 30.34 -44.68 29.68 -44 29 C-43.21625 29.639375 -42.4325 30.27875 -41.625 30.9375 C-37.531976 34.15344743 -35.22213247 34.35404288 -30 34 C-24.93006834 31.7777897 -22.70972058 28.11003429 -19.8125 23.625 C-18.85168938 22.18567316 -17.88809461 20.74820138 -16.921875 19.3125 C-16.43783203 18.59191406 -15.95378906 17.87132812 -15.45507812 17.12890625 C-13.2440593 13.8939928 -10.93105517 10.7458251 -8.5625 7.625 C-7.78003906 6.58601562 -6.99757812 5.54703125 -6.19140625 4.4765625 C-4.1641601 2.18552139 -2.82288321 1.06742281 0 0 Z " fill="#68D7E9" transform="translate(167,136)"/>
<path d="M0 0 C0.33 0.66 0.66 1.32 1 2 C2.32 1.67 3.64 1.34 5 1 C1.0977233 7.34564753 -2.9380785 13.42098074 -7.6171875 19.22265625 C-9.91086853 22.17074909 -10.11499037 23.95067401 -10.0625 27.625 C-10.04896484 28.85089844 -10.04896484 28.85089844 -10.03515625 30.1015625 C-10.02355469 30.72804687 -10.01195313 31.35453125 -10 32 C-10.99 32.495 -10.99 32.495 -12 33 C-12.66 33.99 -13.32 34.98 -14 36 C-16.33889549 31.17602806 -17.01045563 26.99911831 -15.265625 21.8203125 C-11.56488664 13.64114439 -5.66138331 6.88091071 0 0 Z " fill="#67D8E8" transform="translate(134,134)"/>
<path d="M0 0 C-0.556875 0.226875 -1.11375 0.45375 -1.6875 0.6875 C-7.87021851 4.19661051 -11.48426265 10.36633047 -15.25 16.1796875 C-17.23336098 19.09274894 -18.40024254 20.80341283 -21.8125 21.921875 C-22.534375 21.94765625 -23.25625 21.9734375 -24 22 C-22.9832497 14.08080404 -16.96224427 7.25467303 -10.9375 2.3125 C-7.1498865 -0.30507844 -4.51721278 -0.5646516 0 0 Z " fill="#68D3E6" transform="translate(159,114)"/>
<path d="M0 0 C0.33 0.66 0.66 1.32 1 2 C-1.04540146 6.8172731 -3.88636383 11.04494295 -6.875 15.3125 C-7.50728516 16.26092773 -7.50728516 16.26092773 -8.15234375 17.22851562 C-10.17147861 20.10902453 -11.41822709 21.81064178 -14.8203125 22.91796875 C-15.53960937 22.94503906 -16.25890625 22.97210938 -17 23 C-14.7968938 17.33486977 -12.25690482 12.7859145 -8.625 7.875 C-7.85414063 6.82054687 -7.08328125 5.76609375 -6.2890625 4.6796875 C-4.20749582 2.24290466 -2.9527479 1.09211224 0 0 Z " fill="#61D0E6" transform="translate(167,136)"/>
<path d="M0 0 C0.99 0 1.98 0 3 0 C3.33 2.97 3.66 5.94 4 9 C6.97 8.34 9.94 7.68 13 7 C12.34 8.98 11.68 10.96 11 13 C3.26487524 13.2975048 3.26487524 13.2975048 0 11 C-2.1642235 7.75366476 -2.37569856 6.75698557 -2 3 C-1.34 2.01 -0.68 1.02 0 0 Z " fill="#5CCFE0" transform="translate(132,149)"/>
<path d="M0 0 C0.66 0.33 1.32 0.66 2 1 C1.67 1.99 1.34 2.98 1 4 C1.66 4.33 2.32 4.66 3 5 C1.56547553 6.93976579 0.12753183 8.87682931 -1.3125 10.8125 C-1.71662109 11.35970703 -2.12074219 11.90691406 -2.53710938 12.47070312 C-4.54284347 15.16132204 -6.5291298 17.72104205 -9 20 C-9.66 19.67 -10.32 19.34 -11 19 C-10.67 18.01 -10.34 17.02 -10 16 C-10.66 15.67 -11.32 15.34 -12 15 C-11.319375 14.38125 -10.63875 13.7625 -9.9375 13.125 C-6.0142722 9.23559313 -3.07496184 4.56370417 0 0 Z " fill="#69D8ED" transform="translate(151,154)"/>
<path d="M0 0 C0.33 0 0.66 0 1 0 C1.74521523 7.15406617 0.34707015 11.30223306 -4 17 C-4.33 16.01 -4.66 15.02 -5 14 C-5.99 14.33 -6.98 14.66 -8 15 C-6.87548273 12.0280615 -5.77706209 9.66559313 -4 7 C-3.83286431 4.37468476 -3.83286431 4.37468476 -4 2 C-3.34 2 -2.68 2 -2 2 C-1.67 2.99 -1.34 3.98 -1 5 C-0.67 3.35 -0.34 1.7 0 0 Z " fill="#69D9EA" transform="translate(172,123)"/>
<path d="M0 0 C2.56616632 3.84924948 2.55097676 6.4349304 3 11 C2.01 11.495 2.01 11.495 1 12 C0.01 13.485 0.01 13.485 -1 15 C-2.99584278 10.88357426 -3.42196743 7.55724828 -3 3 C-1.5 1.0625 -1.5 1.0625 0 0 Z " fill="#A1FDFE" transform="translate(121,155)"/>
<path d="M0 0 C2.64 1.98 5.28 3.96 8 6 C7.67 6.99 7.34 7.98 7 9 C3.06326356 7.68775452 0.77280706 6.08089673 -2 3 C-1.34 2.01 -0.68 1.02 0 0 Z " fill="#F9FBFB" transform="translate(106,165)"/>
<path d="M0 0 C-0.33 1.65 -0.66 3.3 -1 5 C-3.64 5 -6.28 5 -9 5 C-9 4.01 -9 3.02 -9 2 C-2.25 0 -2.25 0 0 0 Z " fill="#5CC9E0" transform="translate(141,170)"/>
<path d="M0 0 C0.99 0 1.98 0 3 0 C3 2.31 3 4.62 3 7 C1.68 7 0.36 7 -1 7 C-1.04254356 5.00045254 -1.04080783 2.99958364 -1 1 C-0.67 0.67 -0.34 0.34 0 0 Z " fill="#F5F6F7" transform="translate(186,108)"/>
<path d="M0 0 C1.32 0.33 2.64 0.66 4 1 C4 2.98 4 4.96 4 7 C2.68 7 1.36 7 0 7 C0 4.69 0 2.38 0 0 Z " fill="#F7F8F9" transform="translate(99,107)"/>
<path d="M0 0 C2.97 0.495 2.97 0.495 6 1 C6.33 2.32 6.66 3.64 7 5 C2.25 4.125 2.25 4.125 0 3 C0 2.01 0 1.02 0 0 Z " fill="#FAFDFD" transform="translate(115,174)"/>
<path d="M0 0 C-0.1875 1.875 -0.1875 1.875 -1 4 C-3.5625 5.25 -3.5625 5.25 -6 6 C-6.33 5.01 -6.66 4.02 -7 3 C-3.375 0 -3.375 0 0 0 Z " fill="#FBFBFA" transform="translate(183,167)"/>
<path d="M0 0 C0.66 0.33 1.32 0.66 2 1 C1.67 2.98 1.34 4.96 1 7 C-0.32 7.33 -1.64 7.66 -3 8 C-2.45276317 4.62537285 -1.9451 2.91765 0 0 Z " fill="#F7F8F8" transform="translate(186,157)"/>
<path d="M0 0 C0.99 0 1.98 0 3 0 C3 2.31 3 4.62 3 7 C1.68 6.67 0.36 6.34 -1 6 C-1.042721 4.33388095 -1.04063832 2.66617115 -1 1 C-0.67 0.67 -0.34 0.34 0 0 Z " fill="#F0F3F4" transform="translate(186,148)"/>
<path d="M0 0 C1.32 0.33 2.64 0.66 4 1 C4 2.65 4 4.3 4 6 C2.68 6.33 1.36 6.66 0 7 C0 4.69 0 2.38 0 0 Z " fill="#F2F4F5" transform="translate(99,147)"/>
<path d="M0 0 C0.99 0 1.98 0 3 0 C3 2.31 3 4.62 3 7 C1.68 6.67 0.36 6.34 -1 6 C-1.042721 4.33388095 -1.04063832 2.66617115 -1 1 C-0.67 0.67 -0.34 0.34 0 0 Z " fill="#EFF3F4" transform="translate(186,138)"/>
<path d="M0 0 C0.99 0 1.98 0 3 0 C3 2.31 3 4.62 3 7 C1.68 6.67 0.36 6.34 -1 6 C-1.042721 4.33388095 -1.04063832 2.66617115 -1 1 C-0.67 0.67 -0.34 0.34 0 0 Z " fill="#EDF2F4" transform="translate(186,128)"/>
<path d="M0 0 C-0.66 1.32 -1.32 2.64 -2 4 C-3.65 3.67 -5.3 3.34 -7 3 C-6.67 2.01 -6.34 1.02 -6 0 C-3.50907189 -1.24546405 -2.58919267 -0.7767578 0 0 Z " fill="#FDFDFC" transform="translate(149,189)"/>
<path d="M0 0 C0.66 0.33 1.32 0.66 2 1 C2 1.99 2 2.98 2 4 C-1 6 -1 6 -3.1875 5.625 C-3.785625 5.41875 -4.38375 5.2125 -5 5 C-4 2 -4 2 -2.0625 0.75 C-1.381875 0.5025 -0.70125 0.255 0 0 Z " fill="#FEFEFD" transform="translate(173,172)"/>
<path d="M0 0 C0.99 0.33 1.98 0.66 3 1 C2.67 2.65 2.34 4.3 2 6 C1.01 6 0.02 6 -1 6 C-1.33 5.67 -1.66 5.34 -2 5 C-2.99 5.495 -2.99 5.495 -4 6 C-2.84826645 3.53199953 -1.95216435 1.95216435 0 0 Z " fill="#63DDEB" transform="translate(160,132)"/>
<path d="M0 0 C0.66 0.33 1.32 0.66 2 1 C2 2.98 2 4.96 2 7 C1.01 7 0.02 7 -1 7 C-2 6 -2 6 -2.0625 3.4375 C-2.041875 2.633125 -2.02125 1.82875 -2 1 C-1.34 0.67 -0.68 0.34 0 0 Z " fill="#F1F4F5" transform="translate(187,118)"/>
<path d="M0 0 C2.4375 0.25 2.4375 0.25 5 1 C5.66 1.99 6.32 2.98 7 4 C5.25 4.75 5.25 4.75 3 5 C0.75 3.0625 0.75 3.0625 -1 1 C-0.67 0.67 -0.34 0.34 0 0 Z " fill="#FDFDFD" transform="translate(133,184)"/>
<path d="M0 0 C1.32 0 2.64 0 4 0 C3.67 1.32 3.34 2.64 3 4 C1.35 4.33 -0.3 4.66 -2 5 C-2 2 -2 2 0 0 Z " fill="#FDFDFD" transform="translate(162,178)"/>
<path d="M0 0 C0.763125 0.20625 1.52625 0.4125 2.3125 0.625 C0.6625 2.605 -0.9875 4.585 -2.6875 6.625 C-3.3475 6.295 -4.0075 5.965 -4.6875 5.625 C-4.3575 4.635 -4.0275 3.645 -3.6875 2.625 C-4.3475 2.295 -5.0075 1.965 -5.6875 1.625 C-2.6875 -0.375 -2.6875 -0.375 0 0 Z " fill="#69E4F5" transform="translate(144.6875,167.375)"/>
<path d="M0 0 C0.66 0 1.32 0 2 0 C2.33 2.31 2.66 4.62 3 7 C1.68 7 0.36 7 -1 7 C-1.04254356 5.00045254 -1.04080783 2.99958364 -1 1 C-0.67 0.67 -0.34 0.34 0 0 Z " fill="#F3F4F6" transform="translate(100,137)"/>
<path d="M0 0 C-1.8125 2 -1.8125 2 -4 4 C-4.99 4 -5.98 4 -7 4 C-6.625 2.0625 -6.625 2.0625 -6 0 C-3.50907189 -1.24546405 -2.58919267 -0.7767578 0 0 Z " fill="#FCFCFB" transform="translate(158,184)"/>
<path d="M0 0 C2.375 0.3125 2.375 0.3125 5 1 C5.66 1.99 6.32 2.98 7 4 C5.1875 4.625 5.1875 4.625 3 5 C2.01 4.34 1.02 3.68 0 3 C0 2.01 0 1.02 0 0 Z " fill="#FCFCFC" transform="translate(124,179)"/>
<path d="M0 0 C0.99 0 1.98 0 3 0 C3.33 2.31 3.66 4.62 4 7 C3.01 6.67 2.02 6.34 1 6 C0.67 4.02 0.34 2.04 0 0 Z " fill="#F6F9F9" transform="translate(100,157)"/>
<path d="M0 0 C0.99 0 1.98 0 3 0 C3 2.31 3 4.62 3 7 C2.01 7 1.02 7 0 7 C0 4.69 0 2.38 0 0 Z " fill="#EDEEEF" transform="translate(99,127)"/>
<path d="M0 0 C1.67542976 0.28604898 3.34385343 0.61781233 5 1 C3.89131683 3.21736634 2.50559539 5.03617993 1 7 C0.34 5.02 -0.32 3.04 -1 1 C-0.67 0.67 -0.34 0.34 0 0 Z " fill="#86F3F8" transform="translate(119,163)"/>
<path d="M0 0 C0.66 0.33 1.32 0.66 2 1 C2 2.98 2 4.96 2 7 C1.01 7 0.02 7 -1 7 C-1.04254356 5.00045254 -1.04080783 2.99958364 -1 1 C-0.67 0.67 -0.34 0.34 0 0 Z " fill="#EEEFF2" transform="translate(100,117)"/>
<path d="M0 0 C0.99 0.33 1.98 0.66 3 1 C2.625 3.4375 2.625 3.4375 2 6 C1.01 6.495 1.01 6.495 0 7 C0 5.68 0 4.36 0 3 C-0.99 3 -1.98 3 -3 3 C-2.01 2.01 -1.02 1.02 0 0 Z " fill="#6EDDED" transform="translate(149,124)"/>
</svg>
