<?xml version="1.0" encoding="UTF-8"?>
<svg version="1.1" xmlns="http://www.w3.org/2000/svg" width="678" height="256">
<path d="M0 0 C1.01934631 -0.00563965 2.03869263 -0.0112793 3.08892822 -0.01708984 C4.20643967 -0.01304138 5.32395111 -0.00899292 6.47532654 -0.00482178 C8.24143784 -0.01007874 8.24143784 -0.01007874 10.04322815 -0.01544189 C13.27247599 -0.02274221 16.50156021 -0.02102264 19.73080564 -0.01468372 C23.10780258 -0.00962407 26.48478852 -0.01431497 29.86178589 -0.01745605 C35.53197699 -0.0210953 41.202116 -0.01629718 46.87229919 -0.0067749 C53.43262641 0.00411484 59.99282936 0.00058019 66.55315357 -0.01042771 C72.18208429 -0.01949553 77.81097755 -0.02078852 83.43991321 -0.01555037 C86.8034948 -0.01242855 90.16701792 -0.01202722 93.53059578 -0.01862335 C97.27788432 -0.02367867 101.0249311 -0.01599242 104.77220154 -0.00482178 C106.45150505 -0.01089447 106.45150505 -0.01089447 108.16473389 -0.01708984 C109.68952362 -0.00863037 109.68952362 -0.00863037 111.24511719 0 C112.57495054 0.00113108 112.57495054 0.00113108 113.93164921 0.002285 C116.05906677 0.25396729 116.05906677 0.25396729 118.05906677 2.25396729 C118.26837343 5.1178953 118.352702 7.88588517 118.34959412 10.75177002 C118.35631134 11.63172134 118.36302856 12.51167267 118.36994934 13.41828918 C118.3890177 16.34143663 118.3928592 19.26435517 118.39500427 22.18756104 C118.40143049 24.22101435 118.40815872 26.25446673 118.41517639 28.28791809 C118.42717435 32.56104675 118.43085508 36.83409445 118.42967224 41.10723877 C118.42946992 46.56111432 118.45667059 52.01446367 118.49121666 57.46821499 C118.5135597 61.67465046 118.51750737 65.88096132 118.51645279 70.08745003 C118.51880151 72.0963324 118.52758365 74.10521859 118.54311752 76.11404228 C118.63901898 89.80849992 118.27987933 101.24371968 109.07273865 112.22369385 C101.69200912 119.66527323 91.69975796 124.53791236 82.68406677 129.75396729 C80.81270874 130.84283699 78.94205413 131.93290364 77.07170105 133.02349854 C75.84696765 133.73520019 74.62029814 134.44358127 73.39164734 135.14849854 C70.44452071 136.84206423 67.5386592 138.56971439 64.68309021 140.41412354 C63.63927185 141.07283447 62.59545349 141.73154541 61.52000427 142.41021729 C60.151745 143.30450439 60.151745 143.30450439 58.75584412 144.21685791 C56.05906677 145.25396729 56.05906677 145.25396729 53.1157074 144.65435791 C49.85106205 143.15867055 46.78543614 141.51635708 43.69187927 139.69146729 C43.0994342 139.34389877 42.50698914 138.99633026 41.89659119 138.63822937 C39.98865816 137.51637187 38.08601897 136.38593069 36.18406677 135.25396729 C34.87210552 134.47661974 33.5600936 133.6993577 32.24803162 132.92218018 C29.67452794 131.39550205 27.10396859 129.86402324 24.53562927 128.32867432 C21.64526703 126.60105982 18.7440744 124.89257891 15.84031677 123.18756104 C4.08345996 116.19567905 -3.59063111 108.89490794 -7.49123764 95.34188271 C-8.26141166 91.76600101 -8.09717977 88.12093656 -8.10206604 84.47808838 C-8.1095134 83.15066872 -8.1095134 83.15066872 -8.11711121 81.7964325 C-8.13170026 78.87341534 -8.13852728 75.95045234 -8.14405823 73.02740479 C-8.14980971 70.99767047 -8.15556745 68.96793618 -8.16133118 66.9382019 C-8.17183004 62.6863581 -8.17768088 58.43453316 -8.1811676 54.18267822 C-8.18666835 48.7235975 -8.21073463 43.26476419 -8.23913956 37.80576134 C-8.25771681 33.6160101 -8.26296877 29.42631926 -8.26450348 25.2365303 C-8.26753863 23.2230048 -8.27559599 21.20948056 -8.28868866 19.19599533 C-8.30565634 16.38748733 -8.30389252 13.57959491 -8.29737854 10.77105713 C-8.30659332 9.93361465 -8.31580811 9.09617218 -8.32530212 8.23335266 C-8.3084259 5.92227173 -8.3084259 5.92227173 -7.94093323 2.25396729 C-4.67949321 0.07967394 -3.77147095 0.00320642 0 0 Z M-0.94093323 7.25396729 C-1.27093323 11.54396729 -1.60093323 15.83396729 -1.94093323 20.25396729 C1.63048476 20.96825088 4.23659832 21.37832406 7.76043701 21.3742218 C9.13383995 21.3762838 9.13383995 21.3762838 10.5349884 21.37838745 C11.52689178 21.37479218 12.51879517 21.3711969 13.54075623 21.36749268 C14.59487198 21.3676387 15.64898773 21.36778473 16.73504639 21.36793518 C20.21416797 21.36723933 23.69323581 21.35946221 27.17234802 21.35162354 C29.58658824 21.34975819 32.00082884 21.34833484 34.41506958 21.34733582 C40.76575264 21.3435198 47.11641278 21.33369729 53.46708679 21.32263184 C59.94891551 21.31239806 66.43074793 21.30783398 72.9125824 21.30279541 C85.62808725 21.29207423 98.3435751 21.27500876 111.05906677 21.25396729 C111.05906677 16.63396729 111.05906677 12.01396729 111.05906677 7.25396729 C74.09906677 7.25396729 37.13906677 7.25396729 -0.94093323 7.25396729 Z M-0.94093323 27.25396729 C-1.02343323 37.93771729 -1.10593323 48.62146729 -1.19093323 59.62896729 C-1.22734924 62.98359131 -1.26376526 66.33821533 -1.30128479 69.79449463 C-1.31297569 72.47629152 -1.32316656 75.15809554 -1.33155823 77.83990479 C-1.34201172 78.52364166 -1.35246521 79.20737854 -1.36323547 79.91183472 C-1.52833435 91.2945217 -0.25213914 100.77356991 7.84422302 109.33209229 C11.91086723 112.86082059 16.49029674 115.49414809 21.15232849 118.15924072 C23.17553771 119.32083741 25.18261083 120.50715418 27.18797302 121.69927979 C30.05713706 123.40429703 32.93484077 125.09314508 35.82078552 126.76959229 C38.59954074 128.38646104 41.34759166 130.04216554 44.07859802 131.73834229 C44.70903015 132.12119385 45.33946228 132.50404541 45.98899841 132.89849854 C47.70125105 133.93848243 49.40394734 134.9941538 51.10594177 136.05084229 C53.90293978 137.50799341 53.90293978 137.50799341 56.37547302 136.78521729 C57.26105896 136.27990479 58.1466449 135.77459229 59.05906677 135.25396729 C59.72180603 134.88690674 60.38454529 134.51984619 61.06736755 134.1416626 C63.47887929 132.7923705 65.86354628 131.40292434 68.24656677 130.00396729 C69.09936218 129.50671143 69.95215759 129.00945557 70.83079529 128.49713135 C75.8208309 125.58250449 80.80149114 122.65305202 85.73094177 119.63677979 C87.48944985 118.5922968 89.27610402 117.59500152 91.07469177 116.62115479 C100.36113 111.52047566 106.40341784 106.29578218 110.24742126 96.2857666 C111.8645232 90.2452865 111.54452506 84.04271416 111.44969177 77.83990479 C111.44566345 76.55253418 111.44163513 75.26516357 111.43748474 73.93878174 C111.41669026 69.16869684 111.36084572 64.39881647 111.30906677 59.62896729 C111.22656677 48.94521729 111.14406677 38.26146729 111.05906677 27.25396729 C74.09906677 27.25396729 37.13906677 27.25396729 -0.94093323 27.25396729 Z " fill="#183660" transform="translate(69.94093322753906,48.74603271484375)"/>
<path d="M0 0 C6.93 -0.0928125 6.93 -0.0928125 14 -0.1875 C16.16175781 -0.22846802 16.16175781 -0.22846802 18.3671875 -0.27026367 C26.71593737 -0.32430277 33.14582602 -0.16898749 39.8125 5.3125 C44.34499505 10.88099392 45.56394259 15.20742054 45.3515625 22.3125 C44.65015455 27.67437411 42.30481691 30.84345774 38.25 34.4375 C37.5075 34.953125 36.765 35.46875 36 36 C37.47485346 40.19945116 39.59485047 43.53737389 42.125 47.1875 C46 52.77935943 46 52.77935943 46 55 C41.44024673 55.81324868 37.52087663 56.13021916 33 55 C29.37115109 51.07236862 27.21294737 46.83616026 25 42 C24.67 41.34 24.34 40.68 24 40 C20.01434954 39.39386091 16.02725031 39.25435265 12 39 C12 44.28 12 49.56 12 55 C8.04 55 4.08 55 0 55 C0 36.85 0 18.7 0 0 Z M11 11 C10.97315321 13.64590014 10.95323643 16.29153096 10.9375 18.9375 C10.92912109 19.69224609 10.92074219 20.44699219 10.91210938 21.22460938 C10.90347559 23.14994313 10.94775667 25.07535581 11 27 C13.03378902 29.03378902 16.97168997 28.27581457 19.75 28.3125 C20.82507813 28.35600586 20.82507813 28.35600586 21.921875 28.40039062 C25.57415114 28.44402995 27.80279276 28.11516696 30.9765625 26.26171875 C33.21391364 23.76089576 33.68154879 22.80244925 33.625 19.5 C33.64433594 18.37078125 33.64433594 18.37078125 33.6640625 17.21875 C32.63196672 13.77033587 31.0942258 12.78188879 28 11 C25.04015553 10.53842581 22.17362594 10.61984195 19.1875 10.75 C18.39923828 10.76804687 17.61097656 10.78609375 16.79882812 10.8046875 C14.86535739 10.85155952 12.93251715 10.9232959 11 11 Z " fill="#133463" transform="translate(545,86)"/>
<path d="M0 0 C6.8990625 -0.12375 6.8990625 -0.12375 13.9375 -0.25 C16.08560181 -0.30462402 16.08560181 -0.30462402 18.27709961 -0.36035156 C26.29698364 -0.42971514 33.25886691 -0.04312886 39.57373047 5.34204102 C43.39978644 9.46741429 45.0048502 13.90557533 44.99609375 19.4921875 C44.52508719 26.24662202 43.15477876 29.94098918 38.1875 34.6875 C32.32268425 38.94236633 27.11119437 39.2789331 20.125 39.125 C18.949375 39.11146484 18.949375 39.11146484 17.75 39.09765625 C15.83319945 39.07428063 13.91655809 39.03841653 12 39 C12.01160156 40.07121094 12.02320313 41.14242187 12.03515625 42.24609375 C12.04453299 43.64322743 12.05363331 45.04036299 12.0625 46.4375 C12.07087891 47.14455078 12.07925781 47.85160156 12.08789062 48.58007812 C12.09653588 50.38693559 12.05220011 52.19387603 12 54 C11.505 54.495 11.505 54.495 11 55 C7.37 55 3.74 55 0 55 C0 36.85 0 18.7 0 0 Z M12 11 C11.34597959 14.59711228 10.86223444 18.03016794 10.875 21.6875 C10.87242187 22.43386719 10.86984375 23.18023437 10.8671875 23.94921875 C10.92574908 26.20100824 10.92574908 26.20100824 12 29 C22.01399355 29.72468864 22.01399355 29.72468864 31 26 C33.50031654 22.24952518 33.53603554 20.44143734 33 16 C31.01617338 13.32530769 29.46795949 11.30608278 26.08911133 10.6015625 C23.93423992 10.50836792 21.84052034 10.56243626 19.6875 10.6875 C18.94693359 10.71005859 18.20636719 10.73261719 17.44335938 10.75585938 C15.62802643 10.8144185 13.81374319 10.90409114 12 11 Z " fill="#163664" transform="translate(222,86)"/>
<path d="M0 0 C1.81242052 -0.02687279 3.62495233 -0.04633715 5.4375 -0.0625 C6.44683594 -0.07410156 7.45617187 -0.08570312 8.49609375 -0.09765625 C11 0 11 0 12 1 C12.12309454 3.60594561 12.18610425 6.1894866 12.2109375 8.796875 C12.23901792 10.41146827 12.26768246 12.02605146 12.296875 13.640625 C12.33806921 16.1927042 12.37494407 18.74459777 12.40136719 21.296875 C12.42904702 23.75560731 12.47493175 26.21347697 12.5234375 28.671875 C12.52669037 29.43038757 12.52994324 30.18890015 12.53329468 30.97039795 C12.63746289 35.47971013 13.24457838 38.39498294 16 42 C18.99217421 44.3272466 22.23509311 44.42395244 25.96875 44.3125 C29.44055471 43.7783762 31.43236972 42.32309407 34 40 C35.99351303 35.36386351 36.33334705 30.95692388 36.4140625 25.9765625 C36.43342865 25.23038666 36.4527948 24.48421082 36.4727478 23.71542358 C36.53212065 21.35206223 36.5787578 18.98865103 36.625 16.625 C36.66321884 15.01430268 36.7022728 13.40362494 36.7421875 11.79296875 C36.83778676 7.86213984 36.921972 3.93121537 37 0 C40.63 0 44.26 0 48 0 C48.0746894 5.10454178 48.12885461 10.20875875 48.16479492 15.3137207 C48.17979269 17.04685006 48.20019772 18.77994204 48.22631836 20.51293945 C48.26310203 23.01783525 48.27981651 25.5222252 48.29296875 28.02734375 C48.30845261 28.79022202 48.32393646 29.55310028 48.33988953 30.33909607 C48.34200121 37.23618746 47.093586 43.53064215 42.5625 48.875 C41.716875 49.57625 40.87125 50.2775 40 51 C39.401875 51.556875 38.80375 52.11375 38.1875 52.6875 C31.245099 56.8529406 23.71545114 56.40375459 16 55 C10.14480727 53.28652387 6.80284451 50.13793181 3.2265625 45.29296875 C0.1098564 39.46651498 -0.28410022 33.9038096 -0.1953125 27.44140625 C-0.1924826 26.65225327 -0.18965271 25.86310028 -0.18673706 25.05003357 C-0.17563057 22.55402828 -0.15054455 20.05839502 -0.125 17.5625 C-0.11495785 15.86003126 -0.10583417 14.15755684 -0.09765625 12.45507812 C-0.0757226 8.30324424 -0.04125977 4.15168498 0 0 Z " fill="#143563" transform="translate(485,86)"/>
<path d="M0 0 C3.63 0 7.26 0 11 0 C12 1 12 1 12.09765625 3.36083984 C12.08605469 4.38387207 12.07445312 5.4069043 12.0625 6.4609375 C12.05476563 7.57210937 12.04703125 8.68328125 12.0390625 9.828125 C12.01310686 12.18489678 11.98706577 14.54166763 11.9609375 16.8984375 C11.95320313 18.0121875 11.94546875 19.1259375 11.9375 20.2734375 C11.92589844 21.29872559 11.91429687 22.32401367 11.90234375 23.38037109 C11.88147147 26.11219304 11.88147147 26.11219304 13 29 C13.39155273 28.57589844 13.78310547 28.15179688 14.18652344 27.71484375 C25.5754446 15.61453055 25.5754446 15.61453055 31.66796875 14.0703125 C34.56985542 14.11885063 37.1777434 14.33779454 40 15 C40 18 40 18 38.80664062 19.53393555 C38.26201172 20.062854 37.71738281 20.59177246 37.15625 21.13671875 C36.56972656 21.71357422 35.98320312 22.29042969 35.37890625 22.88476562 C34.75886719 23.47966797 34.13882813 24.07457031 33.5 24.6875 C32.87996094 25.29400391 32.25992188 25.90050781 31.62109375 26.52539062 C30.08735293 28.02373743 28.54451802 29.51276493 27 31 C28.44319739 35.04095268 30.40488846 38.33033292 32.8125 41.875 C33.52019531 42.92171875 34.22789062 43.9684375 34.95703125 45.046875 C36.60708507 47.43203884 38.28532029 49.78635374 40 52.125 C42 55 42 55 42 57 C37.33337589 58.08386108 33.63321216 58.33358064 29 57 C23.98507799 52.60904188 20.44376482 46.64976524 17 41 C16.38125 41.66 15.7625 42.32 15.125 43 C13 45 13 45 11 45 C11 48.96 11 52.92 11 57 C7.37 57 3.74 57 0 57 C0 38.19 0 19.38 0 0 Z " fill="#173562" transform="translate(364,84)"/>
<path d="M0 0 C5.41110281 3.8273654 8.56943078 7.41369881 10.5625 13.8125 C10.5625 17.1125 10.5625 20.4125 10.5625 23.8125 C0.6625 23.8125 -9.2375 23.8125 -19.4375 23.8125 C-17.03637918 28.64628191 -17.03637918 28.64628191 -14.3125 30.1875 C-8.54144669 31.44207681 -2.7321212 30.37441348 2.5625 27.8125 C4.2125 29.4625 5.8625 31.1125 7.5625 32.8125 C6.36231875 36.54639722 4.09633079 38.19322414 0.68359375 39.98828125 C-6.08834724 42.6197353 -12.70320079 42.16950472 -19.4375 39.8125 C-24.71330027 36.87022677 -28.13039517 33.62277538 -30.6875 28.125 C-32.25716136 21.192329 -32.3642682 14.92313294 -28.7734375 8.6328125 C-21.8175374 -0.84510986 -11.13531347 -3.84674465 0 0 Z M-19.4375 12.8125 C-19.1075 14.1325 -18.7775 15.4525 -18.4375 16.8125 C-12.4975 16.4825 -6.5575 16.1525 -0.4375 15.8125 C-1.36973601 11.44254619 -1.36973601 11.44254619 -4.4375 8.8125 C-11.18901106 7.28796525 -14.41377093 7.78877093 -19.4375 12.8125 Z " fill="#133360" transform="translate(436.4375,100.1875)"/>
<path d="M0 0 C5.42411618 3.09571509 8.5071535 6.95896051 10.5 12.9375 C11.17319183 20.38675384 11.08872973 26.79060347 6.5 32.9375 C1.5162326 38.15307053 -4.08431482 40.78223681 -11.27734375 41.03515625 C-18.0369614 40.65498571 -22.99474631 39.33993292 -27.96484375 34.515625 C-33.197237 28.63107838 -33.89399049 23.4330828 -33.75390625 15.8125 C-33.43681727 12.22207713 -32.53047086 9.91068947 -30.5 6.9375 C-29.943125 6.07125 -29.38625 5.205 -28.8125 4.3125 C-21.11117059 -3.59697345 -9.9234898 -4.472976 0 0 Z M-21.5 12.9375 C-22.70643566 16.55680698 -22.82268559 19.12981005 -22.5 22.9375 C-20.80329172 26.26807552 -19.39735364 28.32217179 -16.3125 30.4375 C-12.08790993 31.18853823 -8.49997084 30.42011467 -4.5 28.9375 C-1.57670609 26.5623237 -1.46583813 24.78621172 -0.625 21.0625 C-0.25547912 16.92848514 -1.09029403 14.39141188 -3.5 10.9375 C-6.37278179 8.54351518 -8.22667978 7.97725567 -11.9375 7.4375 C-16.69197325 8.10479449 -18.17221155 9.53047849 -21.5 12.9375 Z " fill="#143462" transform="translate(303.5,101.0625)"/>
<path d="M0 0 C4.31154487 3.62561728 7.45066497 7.39582625 8.3203125 13.1015625 C8.81387253 22.67662701 3.28108881 29.3009604 -2.5 36.4375 C-7.35264233 42.53690891 -11.99756601 48.71895174 -16.4375 55.125 C-27.96583532 71.60019563 -27.96583532 71.60019563 -34.89453125 73.6640625 C-40.1732305 74.50630394 -45.02416755 73.73847179 -49.8125 71.375 C-54.64778469 67.77223886 -56.53047151 64.86639571 -57.484375 59.04296875 C-58.25833809 46.49583636 -51.25467678 39.38204391 -43.58984375 30.2890625 C-40.25776295 26.18339258 -37.38168671 21.76189317 -34.4375 17.375 C-23.08785957 0.57543856 -23.08785957 0.57543856 -16.9375 -2.5625 C-10.39298997 -3.53721426 -5.90699981 -3.17227768 0 0 Z M-22.203125 9.5234375 C-22.87859375 10.46445313 -23.5540625 11.40546875 -24.25 12.375 C-25.02214844 13.44105469 -25.79429688 14.50710937 -26.58984375 15.60546875 C-27.39353071 16.73676501 -28.19691474 17.86827653 -29 19 C-29.79217124 20.10083475 -30.58514076 21.20109549 -31.37890625 22.30078125 C-33.4653324 25.19913316 -35.53553651 28.10864544 -37.59960938 31.02294922 C-39.15295366 33.21593772 -40.70942641 35.40669245 -42.265625 37.59765625 C-43.36480955 39.14827717 -44.46377125 40.69905608 -45.5625 42.25 C-46.08755127 42.98951904 -46.61260254 43.72903809 -47.15356445 44.4909668 C-47.64042725 45.179729 -48.12729004 45.86849121 -48.62890625 46.578125 C-49.06275635 47.19075195 -49.49660645 47.80337891 -49.94360352 48.43457031 C-52.37328822 52.03501828 -52.35513954 54.66729762 -52 59 C-50.6480916 62.84714504 -48.9535178 65.46780402 -45.3125 67.5 C-40.92542801 68.16219955 -37.24326208 68.48886389 -33 67 C-30.12699959 64.72099545 -28.12472991 61.96979294 -26 59 C-25.4328125 58.23816406 -24.865625 57.47632813 -24.28125 56.69140625 C-22.60376226 54.4132926 -20.95496465 52.11640056 -19.30908203 49.81542969 C-16.52818405 45.95889157 -13.69717461 42.13887037 -10.875 38.3125 C-10.28904053 37.51674561 -9.70308105 36.72099121 -9.09936523 35.90112305 C-8.24193726 34.73770386 -8.24193726 34.73770386 -7.3671875 33.55078125 C-6.80862061 32.79224854 -6.25005371 32.03371582 -5.67456055 31.25219727 C-4.55158725 29.7418563 -3.41744739 28.23975855 -2.27270508 26.74584961 C-1.73282959 26.04081299 -1.1929541 25.33577637 -0.63671875 24.609375 C-0.15420654 23.98643555 0.32830566 23.36349609 0.82543945 22.72167969 C2.61771745 20.09454511 3.06739514 18.16757178 3 15 C1.51752624 10.47455379 0.02216119 6.68144079 -4 4 C-11.966657 1.88835598 -16.63551319 3.14635021 -22.203125 9.5234375 Z M-55 51 C-55 53.97 -55 56.94 -55 60 C-54.01 60.495 -54.01 60.495 -53 61 C-53.33 57.7 -53.66 54.4 -54 51 C-54.33 51 -54.66 51 -55 51 Z " fill="#59CFE0" transform="translate(152,89)"/>
<path d="M0 0 C3.38894992 1.84055039 6.28723589 4.27905806 8.75 7.234375 C8.75 7.894375 8.75 8.554375 8.75 9.234375 C4.29353562 12.20535125 4.29353562 12.20535125 1.75 13.234375 C-1.0625 12.546875 -1.0625 12.546875 -3.25 11.234375 C-6.46694364 9.62590318 -9.77137222 9.62128351 -13.25 10.234375 C-16.85906934 13.15234596 -19.03377478 15.33159305 -19.5625 19.984375 C-19.15069634 24.26713309 -17.29201213 27.19236287 -14.25 30.234375 C-12.02168647 30.47312923 -12.02168647 30.47312923 -9.4375 30.484375 C-8.12845703 30.52304688 -8.12845703 30.52304688 -6.79296875 30.5625 C-3.79624724 30.17582626 -2.58293784 29.06988473 -0.25 27.234375 C2.25 27.921875 2.25 27.921875 4.75 29.234375 C5.513125 29.605625 6.27625 29.976875 7.0625 30.359375 C7.619375 30.648125 8.17625 30.936875 8.75 31.234375 C7.22772497 35.34451757 4.38476678 37.9404333 0.75 40.234375 C-5.32631558 42.46235738 -10.94315743 42.8915052 -17.25 41.234375 C-23.65602671 38.24690088 -27.35447839 34.62865189 -30.25 28.234375 C-32.12664116 22.60445153 -31.8150329 17.048428 -30.0625 11.421875 C-23.88387705 0.55602085 -12.07380154 -4.10844636 0 0 Z " fill="#143260" transform="translate(349.25,99.765625)"/>
<path d="M0 0 C3.63 0 7.26 0 11 0 C11.77090943 3.08363772 12.12320749 5.06643329 12.11352539 8.12597656 C12.11344986 8.92650452 12.11337433 9.72703247 12.11329651 10.55181885 C12.10813522 11.40612488 12.10297394 12.26043091 12.09765625 13.140625 C12.0962413 14.02280701 12.09482635 14.90498901 12.09336853 15.81390381 C12.08778001 18.62597065 12.07522961 21.4379573 12.0625 24.25 C12.05748352 26.15885302 12.05292087 28.06770728 12.04882812 29.9765625 C12.03866609 34.65109728 12.01908842 39.32545907 12 44 C24.87 44.495 24.87 44.495 38 45 C38 48.3 38 51.6 38 55 C25.46 55 12.92 55 0 55 C0 36.85 0 18.7 0 0 Z " fill="#163665" transform="translate(600,86)"/>
<path d="M0 0 C3.63 0 7.26 0 11 0 C11 3.63 11 7.26 11 11 C14.3 11 17.6 11 21 11 C21 13.97 21 16.94 21 20 C17.7 20 14.4 20 11 20 C11.33 26.93 11.66 33.86 12 41 C13.65 41.33 15.3 41.66 17 42 C18.33542939 42.32483418 19.66961551 42.6550855 21 43 C21.66 45.31 22.32 47.62 23 50 C17.49164229 53.30501463 11.98968693 53.26272838 5.89453125 52.05859375 C2.79791973 50.32832216 1.20600316 48.26050617 0 45 C-0.47884601 40.69557866 -0.37688881 36.44898015 -0.25 32.125 C-0.23195313 30.9596875 -0.21390625 29.794375 -0.1953125 28.59375 C-0.1483382 25.72831751 -0.08266293 22.86458832 0 20 C-1.98 20 -3.96 20 -6 20 C-6 17.03 -6 14.06 -6 11 C-4.02 11 -2.04 11 0 11 C0 7.37 0 3.74 0 0 Z " fill="#143361" transform="translate(456,89)"/>
<path d="M0 0 C2.0625 0.4375 2.0625 0.4375 4 1 C3.45160441 5.04508732 2.27833907 7.39804569 -0.203125 10.6171875 C-0.85410156 11.47183594 -1.50507813 12.32648438 -2.17578125 13.20703125 C-2.86027344 14.08746094 -3.54476562 14.96789062 -4.25 15.875 C-6.23315657 18.4618921 -8.21441221 21.0502239 -10.19458008 23.6394043 C-11.33218713 25.12683129 -12.47459951 26.61060712 -13.6237793 28.08911133 C-14.82030389 29.67483422 -15.92136195 31.33184888 -17 33 C-16.48959656 35.91002521 -16.48959656 35.91002521 -15 38 C-12.17335288 38.37114377 -12.17335288 38.37114377 -9 38 C-6.72938948 36.20731348 -6.72938948 36.20731348 -4.875 33.5625 C-4.11703125 32.57636719 -3.3590625 31.59023437 -2.578125 30.57421875 C-0.63640756 27.91394316 1.25482232 25.21965781 3.140625 22.51953125 C3.67671387 21.7524585 4.21280273 20.98538574 4.76513672 20.19506836 C5.82869891 18.66230653 6.88263492 17.12281511 7.92626953 15.57641602 C8.41208496 14.86799561 8.89790039 14.1595752 9.3984375 13.4296875 C9.82817871 12.79272949 10.25791992 12.15577148 10.70068359 11.49951172 C12 10 12 10 15 9 C15.66 9.33 16.32 9.66 17 10 C17.36785071 13.2697841 17.2221897 14.6722308 15.34765625 17.4375 C14.59355469 18.283125 13.83945313 19.12875 13.0625 20 C8.65658727 25.12057259 4.87298945 30.42849368 1.140625 36.0546875 C-2.60309438 41.20571745 -5.71691068 44.66384551 -12.0078125 45.91015625 C-15.38361376 46.06239827 -17.31021053 44.93915055 -20 43 C-23.26440367 39.08271559 -23.45010894 35.99830273 -23 31 C-21.66637954 28.59535249 -20.42612274 26.6922912 -18.75 24.5625 C-18.09076538 23.68428589 -18.09076538 23.68428589 -17.41821289 22.78833008 C-16.4676201 21.52513181 -15.5097286 20.26739999 -14.54541016 19.01464844 C-12.90913526 16.88154568 -11.30186116 14.72878193 -9.69921875 12.5703125 C-1.37613407 1.37613407 -1.37613407 1.37613407 0 0 Z " fill="#5CD1E1" transform="translate(131,101)"/>
<path d="M0 0 C3.13319151 2.71543265 5.42824823 5.14206383 7 9 C6.01 9.33 5.02 9.66 4 10 C3.67 10.99 3.34 11.98 3 13 C2.61070312 12.43410156 2.22140625 11.86820313 1.8203125 11.28515625 C-1.37110491 7.10101684 -3.69777394 4.48856289 -9.0625 3.75 C-13.93765421 3.69117461 -16.39464784 4.55140228 -20 8 C-23.56849978 12.4587853 -26.7726956 17.14784082 -29.92578125 21.90625 C-30.52777344 22.8034375 -31.12976563 23.700625 -31.75 24.625 C-32.28109375 25.44226563 -32.8121875 26.25953125 -33.359375 27.1015625 C-35.25896405 29.2996584 -36.24708805 29.40689295 -39 30 C-39.66 30.99 -40.32 31.98 -41 33 C-41.66 33 -42.32 33 -43 33 C-42.44933397 29.25310344 -41.51762535 26.89207617 -39.26953125 23.85546875 C-38.71330078 23.09556641 -38.15707031 22.33566406 -37.58398438 21.55273438 C-36.99939453 20.77220703 -36.41480469 19.99167969 -35.8125 19.1875 C-35.24724609 18.41857422 -34.68199219 17.64964844 -34.09960938 16.85742188 C-32.40992346 14.56386196 -30.70569438 12.28166879 -29 10 C-28.45263184 9.2570166 -27.90526367 8.5140332 -27.34130859 7.74853516 C-26.82004395 7.04390137 -26.2987793 6.33926758 -25.76171875 5.61328125 C-25.30112061 4.98848877 -24.84052246 4.36369629 -24.3659668 3.7199707 C-17.91778241 -4.39932492 -8.91941627 -4.79005689 0 0 Z " fill="#5ACFE2" transform="translate(152,89)"/>
<path d="M0 0 C0.99 0.33 1.98 0.66 3 1 C2.61666504 1.52432617 2.23333008 2.04865234 1.83837891 2.58886719 C0.09749989 4.97367631 -1.6387873 7.36179181 -3.375 9.75 C-3.97828125 10.575 -4.5815625 11.4 -5.203125 12.25 C-6.07324219 13.44882813 -6.07324219 13.44882813 -6.9609375 14.671875 C-7.76217041 15.77160645 -7.76217041 15.77160645 -8.57958984 16.89355469 C-11.03287322 20.5317343 -12.24768915 22.96303696 -12 27.375 C-11.89599242 31.30778657 -12.49083563 34.32141184 -14 38 C-17.70084901 34.46005747 -18.25578688 32.19708082 -18.5 27.0625 C-18.44897958 19.35841653 -15.61360019 14.94887369 -11 9 C-10.40574219 8.18789062 -9.81148437 7.37578125 -9.19921875 6.5390625 C-7.82553039 4.67032177 -6.42887307 2.82665459 -5 1 C-3 2 -3 2 -2 3 C-1.34 2.01 -0.68 1.02 0 0 Z M-16 22 C-16 24.97 -16 27.94 -16 31 C-15.01 31.495 -15.01 31.495 -14 32 C-14.33 28.7 -14.66 25.4 -15 22 C-15.33 22 -15.66 22 -16 22 Z " fill="#58D2E2" transform="translate(113,118)"/>
<path d="M0 0 C2.35020498 2.35020498 2.31914802 2.91909622 2.375 6.125 C2.09644101 14.49503445 -2.67831783 20.12269692 -7.5625 26.5 C-8.04565674 27.13639404 -8.52881348 27.77278809 -9.02661133 28.4284668 C-10.27843465 30.01252554 -11.63307768 31.51412414 -13 33 C-13.99 33 -14.98 33 -16 33 C-16 32.34 -16 31.68 -16 31 C-16.66 30.67 -17.32 30.34 -18 30 C-17.22076172 28.93072266 -17.22076172 28.93072266 -16.42578125 27.83984375 C-14.98176203 25.85665285 -13.5431988 23.86948078 -12.109375 21.87890625 C-10.90508225 20.23526966 -9.67870334 18.60617764 -8.390625 17.02734375 C-5.11540704 12.95258728 -4.58622378 9.97815184 -4.3125 4.95703125 C-4 3 -4 3 -1.9375 0.9375 C-1.298125 0.628125 -0.65875 0.31875 0 0 Z " fill="#56CDDE" transform="translate(158,98)"/>
<path d="M0 0 C5.51672336 1.18988151 8.26409244 2.53766597 12 7 C13.05287814 8.63377642 14.0727001 10.29181597 15 12 C14.01 12.33 13.02 12.66 12 13 C11.67 13.99 11.34 14.98 11 16 C10.63390625 15.44570312 10.2678125 14.89140625 9.890625 14.3203125 C6.30423276 9.52137812 3.76286207 7.48923966 -2.25 6.5625 C-4.16621035 6.37039262 -6.08282112 6.18218805 -8 6 C-8.99 5.67 -9.98 5.34 -11 5 C-8.28817788 2.39665076 -7.10866187 2.00543309 -3.25 1.8125 C-2.1775 1.874375 -1.105 1.93625 0 2 C0 1.34 0 0.68 0 0 Z " fill="#5FD0E3" transform="translate(144,86)"/>
<path d="M0 0 C0.66 0.33 1.32 0.66 2 1 C2 1.99 2 2.98 2 4 C2.66 4 3.32 4 4 4 C4.3690205 15.52164009 4.3690205 15.52164009 2 21 C-0.77078224 18.34968656 -1.9417151 17.01795262 -2.16796875 13.06640625 C-2.17441406 11.91011719 -2.18085937 10.75382813 -2.1875 9.5625 C-2.20167969 8.40878906 -2.21585937 7.25507813 -2.23046875 6.06640625 C-2 3 -2 3 0 0 Z M0 5 C0 7.97 0 10.94 0 14 C0.99 14.495 0.99 14.495 2 15 C1.67 11.7 1.34 8.4 1 5 C0.67 5 0.34 5 0 5 Z " fill="#28A1BE" transform="translate(97,135)"/>
<path d="M0 0 C2.74642793 1.20842829 5.2501037 2.72699534 7.75 4.375 C8.36359375 4.77460938 8.9771875 5.17421875 9.609375 5.5859375 C11 7 11 7 11 11 C5.36139301 10.59724236 2.92653154 8.83521686 -1 5 C-1.33 4.01 -1.66 3.02 -2 2 C-1.34 1.34 -0.68 0.68 0 0 Z " fill="#14355C" transform="translate(78,150)"/>
<path d="M0 0 C0.66 0.33 1.32 0.66 2 1 C2 1.66 2 2.32 2 3 C3.65 3.33 5.3 3.66 7 4 C7 4.99 7 5.98 7 7 C1.06 6.67 -4.88 6.34 -11 6 C-7 2 -7 2 -3.25 1.75 C-2.1775 1.8325 -1.105 1.915 0 2 C0 1.34 0 0.68 0 0 Z " fill="#6ED5E4" transform="translate(144,86)"/>
<path d="M0 0 C0.66 0 1.32 0 2 0 C1.79375 0.7425 1.5875 1.485 1.375 2.25 C0.95591249 5.32330841 1.38050989 6.42786866 3 9 C1.68 9 0.36 9 -1 9 C-1 9.99 -1 10.98 -1 12 C0.32 12.33 1.64 12.66 3 13 C3 13.66 3 14.32 3 15 C-0.09891358 14.07870137 -1.72788114 13.32841931 -3.8125 10.8125 C-5.26040295 7.38325617 -5.2168384 4.68625273 -5 1 C-3.515 1.99 -3.515 1.99 -2 3 C-1.34 2.01 -0.68 1.02 0 0 Z " fill="#4DCFE0" transform="translate(113,131)"/>
<path d="M0 0 C2 2 2 2 2.23046875 4.09375 C2.21628906 4.8878125 2.20210937 5.681875 2.1875 6.5 C2.18105469 7.2940625 2.17460937 8.088125 2.16796875 8.90625 C2 11 2 11 1 13 C0.01 13 -0.98 13 -2 13 C-4 11 -4 11 -4.375 7.0625 C-4.30683919 3.30683919 -4.30683919 3.30683919 -2 1 C-1.34 0.67 -0.68 0.34 0 0 Z " fill="#15B1C9" transform="translate(158,98)"/>
<path d="M0 0 C0 4.38968456 -2.12805101 5.76905739 -5 9 C-3.68 9.66 -2.36 10.32 -1 11 C-3.3125 13.5 -3.3125 13.5 -6 16 C-7.66666667 16 -9.33333333 16 -11 16 C-9.04124347 9.73197909 -4.68161858 4.49994383 0 0 Z " fill="#49CDE1" transform="translate(132,88)"/>
<path d="M0 0 C9.57 0 19.14 0 29 0 C25.60102327 2.26598448 24.43680827 2.23742654 20.45703125 2.1953125 C18.84731445 2.18564453 18.84731445 2.18564453 17.20507812 2.17578125 C15.52575195 2.15064453 15.52575195 2.15064453 13.8125 2.125 C12.68134766 2.11597656 11.55019531 2.10695313 10.38476562 2.09765625 C7.58963172 2.07406862 4.79492155 2.041153 2 2 C1.67 2.66 1.34 3.32 1 4 C0.67 2.68 0.34 1.36 0 0 Z " fill="#092956" transform="translate(222,86)"/>
<path d="M0 0 C0 3.46877176 -0.61849799 5.82254537 -2 9 C-4 9.6875 -4 9.6875 -6 10 C-6.99 11.485 -6.99 11.485 -8 13 C-8.66 13 -9.32 13 -10 13 C-9.46834503 9.17208423 -8.65102349 6.84038231 -6 4 C-4.36504293 2.94895617 -2.70116376 1.94011682 -1 1 C-0.67 0.67 -0.34 0.34 0 0 Z " fill="#68D3E3" transform="translate(119,109)"/>
<path d="M0 0 C0.33 0.99 0.66 1.98 1 3 C-1.39509338 5.89932357 -3.31245243 6.50168276 -7 7 C-7.66 5.68 -8.32 4.36 -9 3 C-3.375 0 -3.375 0 0 0 Z " fill="#172E5C" transform="translate(130,177)"/>
<path d="M0 0 C0.556875 0.226875 1.11375 0.45375 1.6875 0.6875 C1.4375 2.5625 1.4375 2.5625 0.6875 4.6875 C-1.89402302 6.40851535 -3.16168025 6.6875 -6.3125 6.6875 C-6.6425 5.3675 -6.9725 4.0475 -7.3125 2.6875 C-2.88173077 -0.38942308 -2.88173077 -0.38942308 0 0 Z " fill="#16325C" transform="translate(139.3125,171.3125)"/>
<path d="M0 0 C0.99 0.66 1.98 1.32 3 2 C2.375 3.875 2.375 3.875 1 6 C-2.125 7.25 -2.125 7.25 -5 8 C-5.33 6.68 -5.66 5.36 -6 4 C-4.02 2.68 -2.04 1.36 0 0 Z " fill="#12305B" transform="translate(159,158)"/>
<path d="M0 0 C0.99 0 1.98 0 3 0 C3.66 1.32 4.32 2.64 5 4 C3.38405168 6.04119788 1.7143618 8.04072937 0 10 C-0.66 10 -1.32 10 -2 10 C-2.1953125 3.9453125 -2.1953125 3.9453125 -2 2 C-1.34 1.34 -0.68 0.68 0 0 Z " fill="#64D1E0" transform="translate(139,129)"/>
<path d="M0 0 C1.32 0.33 2.64 0.66 4 1 C4.375 3.0625 4.375 3.0625 4 6 C2.20822891 8.53572282 0.15761879 10.77174488 -2 13 C-2.33 12.34 -2.66 11.68 -3 11 C-2.00390625 8.8359375 -2.00390625 8.8359375 -0.5625 6.375 C-0.08941406 5.55773437 0.38367188 4.74046875 0.87109375 3.8984375 C1.24363281 3.27195312 1.61617187 2.64546875 2 2 C-0.33524782 4.25740623 -2.18705073 6.2805761 -4 9 C-4.66 8.67 -5.32 8.34 -6 8 C-4.02 5.36 -2.04 2.72 0 0 Z " fill="#50CADD" transform="translate(144,110)"/>
<path d="M0 0 C2.0625 0.4375 2.0625 0.4375 4 1 C4 3.31 4 5.62 4 8 C2.0625 8.5625 2.0625 8.5625 0 9 C-1 8 -1 8 -1.125 4.5 C-1 1 -1 1 0 0 Z " fill="#17325E" transform="translate(175,129)"/>
<path d="M0 0 C3.63 0 7.26 0 11 0 C11 3.63 11 7.26 11 11 C10.01 11.495 10.01 11.495 9 12 C9 8.7 9 5.4 9 2 C6.36 2.33 3.72 2.66 1 3 C0.67 2.01 0.34 1.02 0 0 Z " fill="#082552" transform="translate(456,89)"/>
<path d="M0 0 C4.75 1.875 4.75 1.875 7 3 C6.67 4.65 6.34 6.3 6 8 C3.69 7.01 1.38 6.02 -1 5 C-0.67 3.35 -0.34 1.7 0 0 Z " fill="#1C3763" transform="translate(92,160)"/>
<path d="M0 0 C0.99 0.66 1.98 1.32 3 2 C1.84826645 4.46800047 0.95216435 6.04783565 -1 8 C-2.32 8 -3.64 8 -5 8 C-5.33 7.01 -5.66 6.02 -6 5 C-4.02 3.35 -2.04 1.7 0 0 Z " fill="#183059" transform="translate(169,151)"/>
<path d="M0 0 C2.03144641 0.93446535 4.03533587 1.93224776 6 3 C5.67 4.65 5.34 6.3 5 8 C2.0625 6.75 2.0625 6.75 -1 5 C-1.875 2.8125 -1.875 2.8125 -2 1 C-1.34 0.67 -0.68 0.34 0 0 Z " fill="#19335A" transform="translate(113,172)"/>
<path d="M0 0 C3.465 1.98 3.465 1.98 7 4 C6.34 5.32 5.68 6.64 5 8 C3.02 7.01 1.04 6.02 -1 5 C-1 1 -1 1 0 0 Z " fill="#102D53" transform="translate(103,166)"/>
<path d="M0 0 C-0.33 1.65 -0.66 3.3 -1 5 C-2.98 5.66 -4.96 6.32 -7 7 C-7.33 5.68 -7.66 4.36 -8 3 C-4.93882432 0.37613513 -4.26826873 0 0 0 Z " fill="#143360" transform="translate(151,165)"/>
<path d="M0 0 C1.98 0.495 1.98 0.495 4 1 C4 3.31 4 5.62 4 8 C2.68 8 1.36 8 0 8 C-0.33 7.67 -0.66 7.34 -1 7 C-0.71269945 4.66055264 -0.38063221 2.3260857 0 0 Z " fill="#153254" transform="translate(175,93)"/>
<path d="M0 0 C0.99 0.33 1.98 0.66 3 1 C3 3.31 3 5.62 3 8 C1.0625 8.5625 1.0625 8.5625 -1 9 C-2 8 -2 8 -2.1875 5.0625 C-2 2 -2 2 0 0 Z " fill="#173054" transform="translate(72,80)"/>
<path d="M0 0 C0.99 0.33 1.98 0.66 3 1 C3 3.31 3 5.62 3 8 C1.68 8.33 0.36 8.66 -1 9 C-1.625 5.625 -1.625 5.625 -2 2 C-1.34 1.34 -0.68 0.68 0 0 Z " fill="#18345D" transform="translate(176,105)"/>
<path d="M0 0 C1.32 0.33 2.64 0.66 4 1 C3.34 3.31 2.68 5.62 2 8 C0.68 8 -0.64 8 -2 8 C-1.125 2.25 -1.125 2.25 0 0 Z " fill="#173055" transform="translate(174,141)"/>
<path d="M0 0 C0.66 0.33 1.32 0.66 2 1 C2 3.64 2 6.28 2 9 C1.01 9.33 0.02 9.66 -1 10 C-3.125 4.375 -3.125 4.375 -2 1 C-1.34 0.67 -0.68 0.34 0 0 Z " fill="#143153" transform="translate(73,128)"/>
<path d="M0 0 C0.66 0.33 1.32 0.66 2 1 C2 1.99 2 2.98 2 4 C2.66 4 3.32 4 4 4 C3.34 5.32 2.68 6.64 2 8 C1.34 8 0.68 8 0 8 C-0.33 9.65 -0.66 11.3 -1 13 C-1.33 13 -1.66 13 -2 13 C-2.05416188 11.39620659 -2.09286638 9.79188594 -2.125 8.1875 C-2.14820312 7.29417969 -2.17140625 6.40085938 -2.1953125 5.48046875 C-2 3 -2 3 0 0 Z " fill="#2FBED1" transform="translate(97,135)"/>
<path d="M0 0 C1.33332095 2.6666419 0.67102033 4.16680303 0 7 C0.66 7.33 1.32 7.66 2 8 C0.68 9.32 -0.64 10.64 -2 12 C-2.99 10.68 -3.98 9.36 -5 8 C-3.62845496 5.04590299 -2.01136276 2.55991624 0 0 Z " fill="#4AC7DB" transform="translate(137,132)"/>
<path d="M0 0 C0.66 0 1.32 0 2 0 C3.35439668 2.70879335 3.06501451 5.00933268 3 8 C1.68 8.33 0.36 8.66 -1 9 C-1.625 5.625 -1.625 5.625 -2 2 C-1.34 1.34 -0.68 0.68 0 0 Z " fill="#193966" transform="translate(72,92)"/>
<path d="M0 0 C1.98 0.495 1.98 0.495 4 1 C4 2.98 4 4.96 4 7 C2.68 7.33 1.36 7.66 0 8 C-1.125 2.25 -1.125 2.25 0 0 Z " fill="#17305C" transform="translate(175,82)"/>
<path d="M0 0 C0.66 0 1.32 0 2 0 C3.85776765 3.13498292 4.20140476 5.37471432 4 9 C2.68 8.67 1.36 8.34 0 8 C-0.38063221 5.6739143 -0.71269945 3.33944736 -1 1 C-0.67 0.67 -0.34 0.34 0 0 Z " fill="#153564" transform="translate(73,140)"/>
<path d="M0 0 C2 2 2 2 2.125 5.125 C2.08375 6.07375 2.0425 7.0225 2 8 C0.68 8.33 -0.64 8.66 -2 9 C-2.33 6.69 -2.66 4.38 -3 2 C-2.01 1.34 -1.02 0.68 0 0 Z " fill="#142F56" transform="translate(73,116)"/>
<path d="M0 0 C1.32 0.33 2.64 0.66 4 1 C4 3.31 4 5.62 4 8 C2.68 8 1.36 8 0 8 C0 5.36 0 2.72 0 0 Z " fill="#1F3E67" transform="translate(175,117)"/>
<path d="M0 0 C1.32 0 2.64 0 4 0 C4 2.31 4 4.62 4 7 C2.68 7.33 1.36 7.66 0 8 C-0.38063221 5.6739143 -0.71269945 3.33944736 -1 1 C-0.67 0.67 -0.34 0.34 0 0 Z " fill="#122D55" transform="translate(71,105)"/>
<path d="M0 0 C0 3 0 3 -1 4.625 C-4.06903517 6.73496168 -7.35971617 7.02832906 -11 7 C-14 6.0625 -14 6.0625 -16 5 C-14 4 -14 4 -10.25 4.1875 C-5.67185449 4.27939708 -3.52205204 2.81764163 0 0 Z " fill="#072855" transform="translate(519,126)"/>
<path d="M0 0 C0.99 0.33 1.98 0.66 3 1 C3 2.65 3 4.3 3 6 C1.68 6 0.36 6 -1 6 C-1.66 5.01 -2.32 4.02 -3 3 C-2.01 2.01 -1.02 1.02 0 0 Z " fill="#72D5E3" transform="translate(132,127)"/>
<path d="M0 0 C2.31 0 4.62 0 7 0 C7 0.99 7 1.98 7 3 C4.5 5.1875 4.5 5.1875 2 7 C2.66 5.68 3.32 4.36 4 3 C2.68 2.34 1.36 1.68 0 1 C0 0.67 0 0.34 0 0 Z " fill="#031551" transform="translate(397,99)"/>
<path d="M0 0 C0.45375 0.495 0.9075 0.99 1.375 1.5 C2.87635519 3.22609337 2.87635519 3.22609337 5 3 C4.67 4.32 4.34 5.64 4 7 C2.68 6.67 1.36 6.34 0 6 C0 4.02 0 2.04 0 0 Z " fill="#092B53" transform="translate(174,131)"/>
<path d="M0 0 C0 1.65 0 3.3 0 5 C-1.98 5.99 -1.98 5.99 -4 7 C-4.1875 4.625 -4.1875 4.625 -4 2 C-1 0 -1 0 0 0 Z " fill="#68D3E0" transform="translate(125,114)"/>
<path d="M0 0 C1.32 1.32 2.64 2.64 4 4 C2.02 4.99 2.02 4.99 0 6 C-0.66 4.68 -1.32 3.36 -2 2 C-1.34 1.34 -0.68 0.68 0 0 Z " fill="#153C66" transform="translate(103,166)"/>
<path d="M0 0 C0.66 0.33 1.32 0.66 2 1 C2.625 3.5625 2.625 3.5625 3 6 C2.01 6 1.02 6 0 6 C0 5.34 0 4.68 0 4 C-0.66 3.67 -1.32 3.34 -2 3 C-1.34 2.01 -0.68 1.02 0 0 Z " fill="#3FC0DA" transform="translate(142,125)"/>
<path d="M0 0 C-1.28519565 2.86697492 -2.57129254 4.97607712 -5 7 C-5.66 7 -6.32 7 -7 7 C-3.86206897 0 -3.86206897 0 0 0 Z " fill="#0B2B5B" transform="translate(399,105)"/>
<path d="M0 0 C0.99 0.33 1.98 0.66 3 1 C3 1.66 3 2.32 3 3 C3.61875 3.268125 4.2375 3.53625 4.875 3.8125 C7 5 7 5 9 8 C4.12314139 6.64531705 2.51407619 4.28324091 0 0 Z " fill="#0D2E61" transform="translate(321,131)"/>
<path d="M0 0 C0.66 0.33 1.32 0.66 2 1 C-0.97 4.96 -0.97 4.96 -4 9 C-4.33 8.01 -4.66 7.02 -5 6 C-4.34 5.01 -3.68 4.02 -3 3 C-2.34 3 -1.68 3 -1 3 C-0.67 2.01 -0.34 1.02 0 0 Z " fill="#4ACDE3" transform="translate(107,128)"/>
<path d="M0 0 C2.475 0.495 2.475 0.495 5 1 C4.01 1.33 3.02 1.66 2 2 C2 4.97 2 7.94 2 11 C1.67 11 1.34 11 1 11 C0.67 7.37 0.34 3.74 0 0 Z " fill="#112E5C" transform="translate(364,84)"/>
<path d="M0 0 C0.99 0.66 1.98 1.32 3 2 C2.01 3.32 1.02 4.64 0 6 C-0.66 5.34 -1.32 4.68 -2 4 C-2 3.01 -2 2.02 -2 1 C-1.34 0.67 -0.68 0.34 0 0 Z " fill="#0F2B4C" transform="translate(113,172)"/>
</svg>
