<?xml version="1.0" encoding="UTF-8"?>
<svg xmlns="http://www.w3.org/2000/svg" version="1.1" width="1024" height="1024" style="background: transparent;">

<path d="M0 0 C1.25847842 -0.00779995 2.51695684 -0.01559991 3.81357098 -0.02363622 C7.30453269 -0.04451858 10.79481142 -0.0341888 14.28577566 -0.01870513 C18.05137362 -0.00740094 21.81685342 -0.02484964 25.58242798 -0.03860474 C32.95828639 -0.06085177 40.33389058 -0.05602952 47.709759 -0.04154153 C53.7036118 -0.03025501 59.69739329 -0.02871583 65.69125366 -0.03416061 C66.54394386 -0.03492678 67.39663406 -0.03569294 68.27516335 -0.03648233 C70.00732305 -0.03808093 71.73948272 -0.039702 73.47164237 -0.04134528 C89.71866154 -0.05560707 105.9655397 -0.03920334 122.21253574 -0.01234345 C136.15681645 0.00999574 150.10088906 0.00611573 164.04516602 -0.01693726 C180.23356587 -0.0436877 196.4218421 -0.05423374 212.61026096 -0.03887594 C214.3360907 -0.03728317 216.06192046 -0.03571132 217.78775024 -0.03416061 C218.63691771 -0.03338924 219.48608517 -0.03261786 220.36098498 -0.03182311 C226.34846472 -0.02750383 232.33586613 -0.03479755 238.32333374 -0.04655838 C245.61894137 -0.06057355 252.91427999 -0.05680433 260.20985675 -0.03015466 C263.93310145 -0.01700298 267.65589745 -0.01188652 271.37913895 -0.02840042 C275.41281885 -0.0460208 279.44536335 -0.0250002 283.47900391 0 C284.65944118 -0.01115361 285.83987844 -0.02230722 287.05608654 -0.03379881 C291.83384452 0.02389555 294.83913629 0.08461999 298.96694183 2.60751057 C301.39619432 6.75650245 301.43033919 9.97594782 301.36096191 14.70835876 C301.36735074 15.62422467 301.37373956 16.54009057 301.38032198 17.48370999 C301.39558899 20.55449472 301.37509819 23.62399274 301.35473633 26.69473267 C301.35823727 28.89608691 301.36389553 31.09743863 301.37155151 33.29878235 C301.38582207 39.28300818 301.3687096 45.26677567 301.34526634 51.25095773 C301.32516164 57.52153622 301.33103719 63.79209557 301.33337402 70.06269836 C301.3333204 80.60548102 301.31367079 91.14810451 301.28149414 101.69082642 C301.24848977 112.50890605 301.23422105 123.32679898 301.24047852 134.14492798 C301.24799443 147.20280025 301.24052421 160.26058233 301.21882629 173.31844139 C301.21068672 178.29290096 301.20793645 183.26731939 301.20951843 188.24178505 C301.21040362 194.11792816 301.19601184 199.99385105 301.1702919 205.86993599 C301.1631851 208.01597271 301.16101968 210.16203296 301.16440964 212.30807877 C301.1882562 230.97853375 299.25971731 246.77951336 290.73950195 263.63491821 C289.93512695 265.22626587 289.93512695 265.22626587 289.11450195 266.84976196 C277.78674738 287.57192839 260.50538317 299.10383116 240.38104248 310.42852783 C232.86789223 314.66982233 225.46332007 319.09395496 218.05200195 323.50991821 C216.7405316 324.28987401 215.42900934 325.06974254 214.11743164 325.84951782 C208.42960031 329.23330891 202.74832503 332.62768346 197.07704163 336.03913879 C188.52119166 341.18461742 179.91269042 346.23634766 171.28637695 351.26260376 C170.06925336 351.97210489 168.85255662 352.68233878 167.6362915 353.39331055 C166.43690126 354.09406993 165.23635173 354.79284918 164.03460693 355.48956299 C161.04507553 357.23370452 158.11182983 359.02732203 155.22875977 360.94302368 C154.65888336 361.31515488 154.08900696 361.68728607 153.50186157 362.07069397 C151.9451362 363.09386024 150.40160686 364.13702484 148.85913086 365.18154907 C145.04771352 366.95720782 141.83856548 367.32021655 137.73950195 366.63491821 C134.40722656 365.2171936 134.40722656 365.2171936 131.1418457 363.23257446 C130.55049332 362.8798497 129.95914093 362.52712494 129.34986877 362.16371155 C127.44858952 361.02446601 125.56318314 359.86145599 123.67700195 358.69741821 C122.35637255 357.90021099 121.03475113 357.10464488 119.7121582 356.31069946 C117.14878365 354.76829065 114.5912386 353.21700382 112.03979492 351.65493774 C108.45257352 349.45929712 104.84895903 347.29372548 101.23950195 345.13491821 C100.1309082 344.46589478 99.02231445 343.79687134 97.88012695 343.10757446 C91.94549701 339.54710463 85.96253929 336.0679071 79.98950195 332.57241821 C67.86407452 325.47564213 55.75933541 318.34535881 43.68481445 311.16226196 C40.17006514 309.071678 36.64841709 306.99584566 33.10668945 304.95132446 C25.38793681 300.4723106 18.40215894 295.58925286 11.73950195 289.63491821 C10.79204102 288.81120728 10.79204102 288.81120728 9.82543945 287.97085571 C-5.73596663 273.54635601 -15.79554441 250.24773951 -17.44900787 229.23982561 C-17.5236707 226.78668345 -17.54165217 224.34044555 -17.53465271 221.88618469 C-17.53988939 220.95828544 -17.54512607 220.03038619 -17.55052143 219.07436877 C-17.56541291 215.99383984 -17.56622416 212.91347858 -17.56689453 209.83291626 C-17.57452279 207.61297835 -17.58295142 205.39304306 -17.59211731 203.17311096 C-17.61399052 197.16528938 -17.62285037 191.15751867 -17.62794375 185.14966178 C-17.63159274 181.39567004 -17.6378353 177.64169153 -17.64494514 173.88770485 C-17.66437785 163.48262076 -17.68090782 153.07754582 -17.68382168 142.67244244 C-17.68400925 142.00837131 -17.68419682 141.34430019 -17.68439007 140.66010569 C-17.6847563 139.31410046 -17.68512 137.96809523 -17.68548118 136.62209 C-17.68566399 135.95399665 -17.68584681 135.2859033 -17.68603516 134.5975647 C-17.68621571 133.92865233 -17.68639625 133.25973996 -17.68658227 132.57055751 C-17.69013065 121.71071798 -17.7172059 110.85107587 -17.75453304 99.9913049 C-17.79259708 88.82757164 -17.81153761 77.66391072 -17.81228119 66.5001052 C-17.81307517 60.23736336 -17.82187151 53.97487716 -17.85027885 47.71219444 C-17.87637049 41.82939991 -17.87871443 35.94707481 -17.86262321 30.06424904 C-17.86080223 27.90389104 -17.86755759 25.74350655 -17.88344193 23.58320618 C-17.90378234 20.63782046 -17.89342176 17.69409644 -17.87522888 14.74873352 C-17.88842885 13.89076461 -17.90162882 13.0327957 -17.91522878 12.14882773 C-17.8596158 8.21699553 -17.50558303 6.0539544 -15.4883585 2.60498714 C-10.48068734 -0.45135855 -5.76022691 -0.05442671 0 0 Z " fill="#FEFEFE" transform="translate(367.260498046875,328.3650817871094)"/>
<path d="M0 0 C1.25847842 -0.00779995 2.51695684 -0.01559991 3.81357098 -0.02363622 C7.30453269 -0.04451858 10.79481142 -0.0341888 14.28577566 -0.01870513 C18.05137362 -0.00740094 21.81685342 -0.02484964 25.58242798 -0.03860474 C32.95828639 -0.06085177 40.33389058 -0.05602952 47.709759 -0.04154153 C53.7036118 -0.03025501 59.69739329 -0.02871583 65.69125366 -0.03416061 C66.54394386 -0.03492678 67.39663406 -0.03569294 68.27516335 -0.03648233 C70.00732305 -0.03808093 71.73948272 -0.039702 73.47164237 -0.04134528 C89.71866154 -0.05560707 105.9655397 -0.03920334 122.21253574 -0.01234345 C136.15681645 0.00999574 150.10088906 0.00611573 164.04516602 -0.01693726 C180.23356587 -0.0436877 196.4218421 -0.05423374 212.61026096 -0.03887594 C214.3360907 -0.03728317 216.06192046 -0.03571132 217.78775024 -0.03416061 C218.63691771 -0.03338924 219.48608517 -0.03261786 220.36098498 -0.03182311 C226.34846472 -0.02750383 232.33586613 -0.03479755 238.32333374 -0.04655838 C245.61894137 -0.06057355 252.91427999 -0.05680433 260.20985675 -0.03015466 C263.93310145 -0.01700298 267.65589745 -0.01188652 271.37913895 -0.02840042 C275.41281885 -0.0460208 279.44536335 -0.0250002 283.47900391 0 C284.65944118 -0.01115361 285.83987844 -0.02230722 287.05608654 -0.03379881 C291.83384452 0.02389555 294.83913629 0.08461999 298.96694183 2.60751057 C301.39619432 6.75650245 301.43033919 9.97594782 301.36096191 14.70835876 C301.36735074 15.62422467 301.37373956 16.54009057 301.38032198 17.48370999 C301.39558899 20.55449472 301.37509819 23.62399274 301.35473633 26.69473267 C301.35823727 28.89608691 301.36389553 31.09743863 301.37155151 33.29878235 C301.38582207 39.28300818 301.3687096 45.26677567 301.34526634 51.25095773 C301.32516164 57.52153622 301.33103719 63.79209557 301.33337402 70.06269836 C301.3333204 80.60548102 301.31367079 91.14810451 301.28149414 101.69082642 C301.24848977 112.50890605 301.23422105 123.32679898 301.24047852 134.14492798 C301.24799443 147.20280025 301.24052421 160.26058233 301.21882629 173.31844139 C301.21068672 178.29290096 301.20793645 183.26731939 301.20951843 188.24178505 C301.21040362 194.11792816 301.19601184 199.99385105 301.1702919 205.86993599 C301.1631851 208.01597271 301.16101968 210.16203296 301.16440964 212.30807877 C301.1882562 230.97853375 299.25971731 246.77951336 290.73950195 263.63491821 C289.93512695 265.22626587 289.93512695 265.22626587 289.11450195 266.84976196 C277.78674738 287.57192839 260.50538317 299.10383116 240.38104248 310.42852783 C232.86789223 314.66982233 225.46332007 319.09395496 218.05200195 323.50991821 C216.7405316 324.28987401 215.42900934 325.06974254 214.11743164 325.84951782 C208.42960031 329.23330891 202.74832503 332.62768346 197.07704163 336.03913879 C188.52119166 341.18461742 179.91269042 346.23634766 171.28637695 351.26260376 C170.06925336 351.97210489 168.85255662 352.68233878 167.6362915 353.39331055 C166.43690126 354.09406993 165.23635173 354.79284918 164.03460693 355.48956299 C161.04507553 357.23370452 158.11182983 359.02732203 155.22875977 360.94302368 C154.65888336 361.31515488 154.08900696 361.68728607 153.50186157 362.07069397 C151.9451362 363.09386024 150.40160686 364.13702484 148.85913086 365.18154907 C145.04771352 366.95720782 141.83856548 367.32021655 137.73950195 366.63491821 C134.40722656 365.2171936 134.40722656 365.2171936 131.1418457 363.23257446 C130.55049332 362.8798497 129.95914093 362.52712494 129.34986877 362.16371155 C127.44858952 361.02446601 125.56318314 359.86145599 123.67700195 358.69741821 C122.35637255 357.90021099 121.03475113 357.10464488 119.7121582 356.31069946 C117.14878365 354.76829065 114.5912386 353.21700382 112.03979492 351.65493774 C108.45257352 349.45929712 104.84895903 347.29372548 101.23950195 345.13491821 C100.1309082 344.46589478 99.02231445 343.79687134 97.88012695 343.10757446 C91.94549701 339.54710463 85.96253929 336.0679071 79.98950195 332.57241821 C67.86407452 325.47564213 55.75933541 318.34535881 43.68481445 311.16226196 C40.17006514 309.071678 36.64841709 306.99584566 33.10668945 304.95132446 C25.38793681 300.4723106 18.40215894 295.58925286 11.73950195 289.63491821 C10.79204102 288.81120728 10.79204102 288.81120728 9.82543945 287.97085571 C-5.73596663 273.54635601 -15.79554441 250.24773951 -17.44900787 229.23982561 C-17.5236707 226.78668345 -17.54165217 224.34044555 -17.53465271 221.88618469 C-17.53988939 220.95828544 -17.54512607 220.03038619 -17.55052143 219.07436877 C-17.56541291 215.99383984 -17.56622416 212.91347858 -17.56689453 209.83291626 C-17.57452279 207.61297835 -17.58295142 205.39304306 -17.59211731 203.17311096 C-17.61399052 197.16528938 -17.62285037 191.15751867 -17.62794375 185.14966178 C-17.63159274 181.39567004 -17.6378353 177.64169153 -17.64494514 173.88770485 C-17.66437785 163.48262076 -17.68090782 153.07754582 -17.68382168 142.67244244 C-17.68400925 142.00837131 -17.68419682 141.34430019 -17.68439007 140.66010569 C-17.6847563 139.31410046 -17.68512 137.96809523 -17.68548118 136.62209 C-17.68566399 135.95399665 -17.68584681 135.2859033 -17.68603516 134.5975647 C-17.68621571 133.92865233 -17.68639625 133.25973996 -17.68658227 132.57055751 C-17.69013065 121.71071798 -17.7172059 110.85107587 -17.75453304 99.9913049 C-17.79259708 88.82757164 -17.81153761 77.66391072 -17.81228119 66.5001052 C-17.81307517 60.23736336 -17.82187151 53.97487716 -17.85027885 47.71219444 C-17.87637049 41.82939991 -17.87871443 35.94707481 -17.86262321 30.06424904 C-17.86080223 27.90389104 -17.86755759 25.74350655 -17.88344193 23.58320618 C-17.90378234 20.63782046 -17.89342176 17.69409644 -17.87522888 14.74873352 C-17.88842885 13.89076461 -17.90162882 13.0327957 -17.91522878 12.14882773 C-17.8596158 8.21699553 -17.50558303 6.0539544 -15.4883585 2.60498714 C-10.48068734 -0.45135855 -5.76022691 -0.05442671 0 0 Z M-2.26049805 68.63491821 C-2.30174805 94.95241821 -2.34299805 121.26991821 -2.38549805 148.38491821 C-2.40370605 156.6810022 -2.42191406 164.97708618 -2.44067383 173.52456665 C-2.44736455 180.99017251 -2.44736455 180.99017251 -2.4513855 188.45578003 C-2.45324152 191.76944685 -2.46070745 195.08304896 -2.47164917 198.396698 C-2.48545726 202.63513963 -2.48946382 206.87348836 -2.4866426 211.1119504 C-2.48723177 212.66016171 -2.4911441 214.20837657 -2.49892831 215.75656843 C-2.61300477 239.56836315 3.82088155 260.50933841 20.8215332 277.83413696 C29.67586822 286.4950307 40.08538684 292.27930393 50.8059082 298.28335571 C57.17888536 301.86008104 63.46082467 305.58326687 69.73950195 309.32241821 C72.04264241 310.69262441 74.34591882 312.06259493 76.6496582 313.43179321 C77.23009888 313.77680878 77.81053955 314.12182434 78.40856934 314.47729492 C82.57014497 316.94800609 86.74331397 319.39827551 90.9230957 321.83804321 C91.52066681 322.18709717 92.11823792 322.53615112 92.73391724 322.89578247 C95.14787451 324.30549096 97.56198452 325.71490808 99.97875977 327.11978149 C106.92791677 331.15994521 113.8133662 335.27769044 120.6184082 339.55679321 C121.90870732 340.36244837 123.19915132 341.16787154 124.48974609 341.97305298 C126.94612368 343.50600714 129.38601583 345.0615427 131.81933594 346.63076782 C133.46591187 347.65956055 133.46591187 347.65956055 135.14575195 348.70913696 C136.10803711 349.32361694 137.07032227 349.93809692 138.06176758 350.57119751 C140.68170774 351.91521156 140.68170774 351.91521156 143.28979492 350.98623657 C144.09819824 350.54030151 144.90660156 350.09436646 145.73950195 349.63491821 C146.51245605 349.21967896 147.28541016 348.8044397 148.08178711 348.37661743 C148.88922363 347.90240356 149.69666016 347.4281897 150.52856445 346.93960571 C151.45540039 346.39731323 152.38223633 345.85502075 153.3371582 345.29629517 C154.33618164 344.70679077 155.33520508 344.11728638 156.36450195 343.50991821 C157.95198242 342.57828857 157.95198242 342.57828857 159.5715332 341.62783813 C162.96359319 339.63480406 166.35210092 337.6358594 169.73950195 335.63491821 C170.81167969 335.00182739 171.88385742 334.36873657 172.98852539 333.71646118 C180.28877913 329.40267488 187.58122872 325.07578489 194.87127686 320.74478149 C196.81374683 319.59081129 198.75634136 318.43705104 200.69897461 317.28335571 C201.37055603 316.88451172 202.04213745 316.48566772 202.73406982 316.07473755 C204.10663108 315.25965071 205.47923046 314.44462809 206.85186768 313.62966919 C210.28164531 311.59325455 213.71076144 309.5557443 217.13842773 307.51577759 C223.17821803 303.92298747 229.22381727 300.34338233 235.3059082 296.82241821 C258.07014621 283.62511161 276.08822853 267.83243619 283.73950195 241.63491821 C285.96467458 232.64087183 286.01240805 223.71644021 285.96655273 214.51504517 C285.96593891 212.89171197 285.96620901 211.26837824 285.96728325 209.64504528 C285.96773172 205.32787967 285.9562047 201.01082665 285.94206238 196.69368744 C285.93060764 192.63124771 285.93013263 188.56883431 285.92871094 184.50637817 C285.91824821 172.65337681 285.89032568 160.80039606 285.86450195 148.94741821 C285.82325195 122.44429321 285.78200195 95.94116821 285.73950195 68.63491821 C190.69950195 68.63491821 95.65950195 68.63491821 -2.26049805 68.63491821 Z " fill="#23406F" transform="translate(367.260498046875,328.3650817871094)"/>
<path d="M0 0 C9.23258973 6.7360221 15.38699924 14.7750161 19.421875 25.42578125 C19.855 26.53953125 20.288125 27.65328125 20.734375 28.80078125 C23.4173541 42.94739835 20.11623434 54.69347064 12.3815918 66.55761719 C9.28989458 71.08250306 5.97485842 75.41501408 2.609375 79.73828125 C-1.94761059 85.65145665 -6.4742839 91.56641137 -10.765625 97.67578125 C-14.33538597 102.749348 -18.04315983 107.69822398 -21.828125 112.61328125 C-28.27181802 120.982479 -34.54512704 129.46965012 -40.79003906 137.98779297 C-45.52546172 144.44436461 -50.2771673 150.88891576 -55.03417969 157.32958984 C-56.43266788 159.22829629 -57.82311612 161.13255498 -59.2109375 163.0390625 C-67.52460002 174.35409809 -76.06946637 183.92141533 -90.578125 186.42578125 C-101.94856023 187.57705127 -112.510715 187.29585569 -122.578125 181.42578125 C-123.80402344 180.73935547 -123.80402344 180.73935547 -125.0546875 180.0390625 C-135.71712195 173.53105485 -142.36835413 163.42018819 -145.578125 151.42578125 C-147.63782361 131.86394748 -142.12804661 119.62515726 -130.578125 104.42578125 C-129.8665625 103.47316406 -129.155 102.52054688 -128.421875 101.5390625 C-126.98752973 99.6203581 -125.54848738 97.70515864 -124.10546875 95.79296875 C-121.0031234 91.67245002 -117.94806985 87.51716305 -114.890625 83.36328125 C-114.29411133 82.55286377 -113.69759766 81.74244629 -113.08300781 80.9074707 C-111.85810702 79.24293321 -110.63333603 77.57830019 -109.40869141 75.91357422 C-107.046276 72.702983 -104.68173237 69.4939634 -102.31689453 66.28515625 C-101.15493272 64.70846446 -99.9931497 63.1316409 -98.83154297 61.5546875 C-95.90465753 57.58137721 -92.97576567 53.6095743 -90.04296875 49.640625 C-88.86703525 48.04828951 -87.69125343 46.45584199 -86.515625 44.86328125 C-85.93989746 44.083479 -85.36416992 43.30367676 -84.77099609 42.50024414 C-81.2749828 37.75579516 -77.81551475 32.98688497 -74.37963867 28.19873047 C-64.08857849 13.86288051 -64.08857849 13.86288051 -58.578125 7.42578125 C-58.04445313 6.78511719 -57.51078125 6.14445312 -56.9609375 5.484375 C-42.70213356 -10.30946764 -17.31892744 -10.57504206 0 0 Z " fill="#FBFDFD" transform="translate(578.578125,431.57421875)"/>
<path d="M0 0 C95.04 0 190.08 0 288 0 C288 12.54 288 25.08 288 38 C192.96 38 97.92 38 0 38 C0 25.46 0 12.92 0 0 Z " fill="#FDFEFD" transform="translate(365,344)"/>
<path d="M0 0 C9.23258973 6.7360221 15.38699924 14.7750161 19.421875 25.42578125 C19.855 26.53953125 20.288125 27.65328125 20.734375 28.80078125 C23.4173541 42.94739835 20.11623434 54.69347064 12.3815918 66.55761719 C9.28989458 71.08250306 5.97485842 75.41501408 2.609375 79.73828125 C-1.94761059 85.65145665 -6.4742839 91.56641137 -10.765625 97.67578125 C-14.33538597 102.749348 -18.04315983 107.69822398 -21.828125 112.61328125 C-28.27181802 120.982479 -34.54512704 129.46965012 -40.79003906 137.98779297 C-45.52546172 144.44436461 -50.2771673 150.88891576 -55.03417969 157.32958984 C-56.43266788 159.22829629 -57.82311612 161.13255498 -59.2109375 163.0390625 C-67.52460002 174.35409809 -76.06946637 183.92141533 -90.578125 186.42578125 C-101.94856023 187.57705127 -112.510715 187.29585569 -122.578125 181.42578125 C-123.80402344 180.73935547 -123.80402344 180.73935547 -125.0546875 180.0390625 C-135.71712195 173.53105485 -142.36835413 163.42018819 -145.578125 151.42578125 C-147.63782361 131.86394748 -142.12804661 119.62515726 -130.578125 104.42578125 C-129.8665625 103.47316406 -129.155 102.52054688 -128.421875 101.5390625 C-126.98752973 99.6203581 -125.54848738 97.70515864 -124.10546875 95.79296875 C-121.0031234 91.67245002 -117.94806985 87.51716305 -114.890625 83.36328125 C-114.29411133 82.55286377 -113.69759766 81.74244629 -113.08300781 80.9074707 C-111.85810702 79.24293321 -110.63333603 77.57830019 -109.40869141 75.91357422 C-107.046276 72.702983 -104.68173237 69.4939634 -102.31689453 66.28515625 C-101.15493272 64.70846446 -99.9931497 63.1316409 -98.83154297 61.5546875 C-95.90465753 57.58137721 -92.97576567 53.6095743 -90.04296875 49.640625 C-88.86703525 48.04828951 -87.69125343 46.45584199 -86.515625 44.86328125 C-85.93989746 44.083479 -85.36416992 43.30367676 -84.77099609 42.50024414 C-81.2749828 37.75579516 -77.81551475 32.98688497 -74.37963867 28.19873047 C-64.08857849 13.86288051 -64.08857849 13.86288051 -58.578125 7.42578125 C-58.04445313 6.78511719 -57.51078125 6.14445312 -56.9609375 5.484375 C-42.70213356 -10.30946764 -17.31892744 -10.57504206 0 0 Z M-51.578125 17.42578125 C-55.24165477 22.15767297 -58.56850093 27.13122422 -61.94384766 32.06982422 C-64.69824603 36.04053595 -67.57502959 39.919258 -70.453125 43.80078125 C-71.03650635 44.5892041 -71.6198877 45.37762695 -72.22094727 46.18994141 C-73.40917814 47.79544727 -74.59790076 49.40058931 -75.78710938 51.00537109 C-77.58126705 53.43002748 -79.36975971 55.85875235 -81.15625 58.2890625 C-86.59836462 65.69219179 -92.05517423 73.08270441 -97.578125 80.42578125 C-104.3080667 89.37954933 -110.97518061 98.37792259 -117.578125 107.42578125 C-118.14692383 108.20228027 -118.71572266 108.9787793 -119.30175781 109.77880859 C-120.94516194 112.02935133 -122.57600478 114.28844666 -124.203125 116.55078125 C-124.6878125 117.21263428 -125.1725 117.8744873 -125.671875 118.55639648 C-132.29098201 127.84114316 -135.01588585 135.91108255 -133.578125 147.42578125 C-130.7337542 158.01036464 -125.00768263 165.77069989 -115.66796875 171.41796875 C-107.80446073 175.21009038 -99.21360541 175.78447242 -90.7265625 173.73828125 C-80.83719425 170.06421255 -74.53537392 163.74286058 -68.578125 155.23828125 C-67.96710938 154.3875 -67.35609375 153.53671875 -66.7265625 152.66015625 C-65.00093391 150.25529087 -63.28917036 147.84102872 -61.578125 145.42578125 C-60.24818299 143.58998629 -58.91556827 141.75611848 -57.578125 139.92578125 C-56.97226562 139.09046875 -56.36640625 138.25515625 -55.7421875 137.39453125 C-51.61214164 131.72876436 -47.44404424 126.09094385 -43.28125 120.44921875 C-40.89037594 117.20839522 -38.50489356 113.96373844 -36.125 110.71484375 C-29.97712891 102.33002585 -23.76262995 94.0023163 -17.453125 85.73828125 C-16.4482605 84.42017456 -16.4482605 84.42017456 -15.4230957 83.07543945 C-12.31874819 79.00575029 -9.20622096 74.94297715 -6.07421875 70.89453125 C3.05960738 59.01413175 9.73266147 48.95220233 8.68701172 33.3828125 C7.4828431 24.49458444 1.30667517 16.79359155 -5.578125 11.42578125 C-21.30603853 1.38156879 -39.24488013 3.54333597 -51.578125 17.42578125 Z " fill="#73D8E6" transform="translate(578.578125,431.57421875)"/>
<path d="M0 0 C3 0.5625 3 0.5625 5.4375 2.25 C7 4.5625 7 4.5625 6.94140625 6.703125 C5.56095741 10.89602354 3.09279614 14.08506371 0.5 17.625 C-0.0460791 18.38377441 -0.5921582 19.14254883 -1.15478516 19.92431641 C-4.88783799 25.09324298 -8.68793829 30.21143122 -12.5390625 35.29296875 C-15.65424036 39.41215825 -18.69550153 43.58575723 -21.75 47.75 C-26.95064284 54.83805842 -32.23492158 61.85364391 -37.64941406 68.7800293 C-45.26785215 78.07121253 -45.26785215 78.07121253 -47.35546875 89.453125 C-46.62310836 93.79899986 -45.14459709 96.58141678 -41.8125 99.4375 C-36.92409623 101.39286151 -32.81995339 101.15677049 -27.9375 99.5625 C-21.10159732 94.90826839 -16.40140709 87.55951651 -11.6875 80.875 C-7.81741602 75.44787059 -3.91356232 70.06760126 0.1875 64.8125 C3.50387187 60.54706995 6.69876932 56.22569595 9.8125 51.8125 C13.74436548 46.2481658 17.80471939 40.79175687 21.9375 35.375 C22.49348877 34.6437793 23.04947754 33.91255859 23.62231445 33.15917969 C24.14784912 32.4737207 24.67338379 31.78826172 25.21484375 31.08203125 C25.68011475 30.47464111 26.14538574 29.86725098 26.62475586 29.24145508 C28.01674563 27.54205624 29.31842329 25.98040635 31 24.5625 C34.49247517 24.6352599 36.3225524 24.95061185 38.9375 27.3125 C40.31897726 30.23798126 39.8789848 31.48347468 39 34.5625 C37.71582031 36.68041992 37.71582031 36.68041992 36.078125 38.79296875 C35.47154053 39.58646729 34.86495605 40.37996582 34.23999023 41.19750977 C33.58329346 42.03983154 32.92659668 42.88215332 32.25 43.75 C30.86970998 45.55362936 29.49082928 47.35833804 28.11328125 49.1640625 C27.41928223 50.0705957 26.7252832 50.97712891 26.01025391 51.91113281 C23.08576238 55.76830769 20.25583878 59.68992788 17.4375 63.625 C11.22798986 72.26606589 4.95429306 80.85767674 -1.39257812 89.3984375 C-2.42227562 90.78471311 -3.44982248 92.17259035 -4.47460938 93.5625 C-10.62566198 101.89114668 -16.21838023 109.46165466 -26 113.5625 C-28.73101258 113.87373449 -31.15563434 114.04148512 -33.875 114 C-34.58462891 113.99025146 -35.29425781 113.98050293 -36.02539062 113.97045898 C-44.60577704 113.67938102 -48.61565879 111.27376286 -54.375 105.125 C-59.18711973 99.61310987 -60.36137161 94.99348744 -60.375 87.75 C-60.39949219 87.07646484 -60.42398437 86.40292969 -60.44921875 85.70898438 C-60.49901711 77.03577057 -55.7642989 70.85156909 -50.625 64.25 C-49.55244655 62.84707144 -48.48087297 61.44339335 -47.41015625 60.0390625 C-46.85215332 59.30977539 -46.29415039 58.58048828 -45.71923828 57.82910156 C-42.78640571 53.96252707 -39.92911381 50.04076415 -37.0625 46.125 C-32.00490222 39.23271502 -26.85066273 32.42346665 -21.63330078 25.65161133 C-17.71997097 20.55317408 -13.93792813 15.37422778 -10.24511719 10.11401367 C-3.60850904 0.67659545 -3.60850904 0.67659545 0 0 Z " fill="#73D8E7" transform="translate(529,462.4375)"/>
<path d="M0 0 C-3.43361902 3.63559661 -6.7973607 6.36113346 -11 9 C-12 6 -12 6 -10.8125 3.4375 C-7.5607682 -0.93551863 -5.18606409 -1.44057336 0 0 Z " fill="#2C4982" transform="translate(639,617)"/>
<path d="M0 0 C1.7074998 1.28062485 3.37373596 2.61767557 5 4 C5 4.66 5 5.32 5 6 C5.598125 6.2475 6.19625 6.495 6.8125 6.75 C9.28647521 8.16370012 10.43370255 9.65055383 12 12 C11.01 12.33 10.02 12.66 9 13 C7.51476358 11.56877218 6.03699538 10.12979111 4.5625 8.6875 C3.73878906 7.88699219 2.91507812 7.08648438 2.06640625 6.26171875 C0 4 0 4 -1 1 C-0.67 0.67 -0.34 0.34 0 0 Z " fill="#254373" transform="translate(372,607)"/>
<path d="M0 0 C0.66 0 1.32 0 2 0 C0.55007731 4.10811428 -1.45407573 7.46855666 -4 11 C-4.33 11 -4.66 11 -5 11 C-5.38613383 8.37428995 -5.38493778 6.6156121 -3.95703125 4.33203125 C-2.625 2.6875 -2.625 2.6875 0 0 Z " fill="#284474" transform="translate(654,594)"/>
<path d="M0 0 C1 3 1 3 -0.1875 5.5 C-1.94150569 7.9193182 -3.51794573 9.37382651 -6 11 C-5.39305845 7.84669446 -4.3583335 5.81111133 -2.4375 3.25 C-1.98246094 2.63640625 -1.52742187 2.0228125 -1.05859375 1.390625 C-0.70925781 0.93171875 -0.35992188 0.4728125 0 0 Z " fill="#234773" transform="translate(640,592)"/>
<path d="M0 0 C2.76262553 0.3810518 3.84143894 0.83597132 5.8125 2.875 C6.204375 3.57625 6.59625 4.2775 7 5 C6.67 5.99 6.34 6.98 6 8 C1.125 3.375 1.125 3.375 0 0 Z " fill="#2B4A76" transform="translate(363,597)"/>
<path d="M0 0 C0.33 0.99 0.66 1.98 1 3 C-1.475 4.485 -1.475 4.485 -4 6 C-4.33 5.01 -4.66 4.02 -5 3 C-4.67 2.34 -4.34 1.68 -4 1 C-1.9375 0.375 -1.9375 0.375 0 0 Z " fill="#2B4C75" transform="translate(632,620)"/>
<path d="M0 0 C0.66 0 1.32 0 2 0 C1.45276317 3.37462715 0.9451 5.08235 -1 8 C-1.99 7.67 -2.98 7.34 -4 7 C-2.68 4.69 -1.36 2.38 0 0 Z " fill="#274974" transform="translate(645,583)"/>
<path d="M0 0 C1.67542976 0.28604898 3.34385343 0.61781233 5 1 C0.25 5 0.25 5 -2 5 C-1.125 1.125 -1.125 1.125 0 0 Z " fill="#274874" transform="translate(552,667)"/>
<path d="M0 0 C1.65 1.32 3.3 2.64 5 4 C4.67 4.99 4.34 5.98 4 7 C2.35 5.35 0.7 3.7 -1 2 C-0.67 1.34 -0.34 0.68 0 0 Z " fill="#2F4C78" transform="translate(372,607)"/>
</svg>